<?xml version="1.0" encoding="UTF-8" standalone="no"?>
<svg
   width="65.473854mm"
   height="8.2010231mm"
   viewBox="0 0 65.473854 8.201023"
   version="1.1"
   id="svg154"
   inkscape:version="1.2 (dc2aedaf03, 2022-05-15)"
   sodipodi:docname="logo-arabionline_gs.svg"
   xmlns:inkscape="http://www.inkscape.org/namespaces/inkscape"
   xmlns:sodipodi="http://sodipodi.sourceforge.net/DTD/sodipodi-0.dtd"
   xmlns="http://www.w3.org/2000/svg"
   xmlns:svg="http://www.w3.org/2000/svg"
   xmlns:rdf="http://www.w3.org/1999/02/22-rdf-syntax-ns#"
   xmlns:cc="http://creativecommons.org/ns#"
   xmlns:dc="http://purl.org/dc/elements/1.1/">
  <defs
     id="defs148">
    <rect
       x="30.71048"
       y="86.608421"
       width="79.186012"
       height="41.766369"
       id="rect1033" />
  </defs>
  <sodipodi:namedview
     id="base"
     pagecolor="#ffffff"
     bordercolor="#666666"
     borderopacity="1.0"
     inkscape:pageopacity="0.0"
     inkscape:pageshadow="2"
     inkscape:zoom="1.4"
     inkscape:cx="239.64286"
     inkscape:cy="-20.714286"
     inkscape:document-units="mm"
     inkscape:current-layer="layer1"
     inkscape:document-rotation="0"
     showgrid="false"
     fit-margin-top="0"
     fit-margin-left="0"
     fit-margin-right="0"
     fit-margin-bottom="0"
     inkscape:window-width="1366"
     inkscape:window-height="705"
     inkscape:window-x="-8"
     inkscape:window-y="405"
     inkscape:window-maximized="1"
     inkscape:showpageshadow="2"
     inkscape:pagecheckerboard="0"
     inkscape:deskcolor="#d1d1d1" />
  <metadata
     id="metadata151">
    <rdf:RDF>
      <cc:Work
         rdf:about="">
        <dc:format>image/svg+xml</dc:format>
        <dc:type
           rdf:resource="http://purl.org/dc/dcmitype/StillImage" />
      </cc:Work>
    </rdf:RDF>
  </metadata>
  <g
     inkscape:label="Ebene 1"
     inkscape:groupmode="layer"
     id="layer1"
     transform="translate(-1026.8247,-125.59719)">
    <text
       xml:space="preserve"
       id="text1031"
       style="font-style:normal;font-weight:normal;font-size:10.5833px;line-height:1.25;font-family:sans-serif;white-space:pre;shape-inside:url(#rect1033);display:inline;fill:#000000;fill-opacity:1;stroke:none" />
    <g
       transform="translate(987.88257,34.831036)"
       style="font-style:normal;font-weight:normal;font-size:10.5833px;line-height:1.25;font-family:sans-serif;opacity:1;fill:#07651a;fill-opacity:1;stroke:none;stroke-width:0.264583"
       id="text49"
       aria-label="Arabi-Online   ">
      <path
         id="path1480"
         style="fill:#07651a;fill-opacity:1;stroke-width:0.264583"
         d="m 45.908139,98.806984 h -1.09037 l -0.754473,-2.144565 h -3.327952 l -0.754473,2.144565 h -1.038693 l 2.800853,-7.694596 h 1.364254 z m -2.160068,-3.023062 -1.348751,-3.777535 -1.353918,3.777535 z" />
      <path
         id="path1482"
         style="fill:#07651a;fill-opacity:1;stroke-width:0.264583"
         d="m 50.600343,94.094108 h -0.05168 q -0.21704,-0.05168 -0.423745,-0.07235 -0.201538,-0.02584 -0.480589,-0.02584 -0.449584,0 -0.868162,0.201538 -0.418578,0.19637 -0.80615,0.511595 v 4.097928 H 46.998504 V 93.03474 h 0.971513 v 0.852658 q 0.578775,-0.465086 1.018023,-0.656288 0.444416,-0.19637 0.904335,-0.19637 0.253213,0 0.366901,0.0155 0.113688,0.01033 0.341063,0.04651 z" />
      <path
         id="path1484"
         style="fill:#07651a;fill-opacity:1;stroke-width:0.264583"
         d="m 55.824814,98.806984 h -0.966347 v -0.614948 q -0.12919,0.08785 -0.351398,0.248046 -0.21704,0.155029 -0.423746,0.248047 -0.242878,0.118855 -0.558103,0.196369 -0.315225,0.08268 -0.738971,0.08268 -0.780312,0 -1.322912,-0.516762 -0.542601,-0.516763 -0.542601,-1.317745 0,-0.656289 0.279052,-1.059364 0.284219,-0.408242 0.806149,-0.640785 0.527098,-0.232544 1.266069,-0.315226 0.738971,-0.08268 1.586461,-0.124023 v -0.149861 q 0,-0.330728 -0.118855,-0.547768 -0.113688,-0.217041 -0.330728,-0.341064 -0.206705,-0.118855 -0.496092,-0.160196 -0.289387,-0.04134 -0.604613,-0.04134 -0.382404,0 -0.852658,0.103352 -0.470254,0.09819 -0.971514,0.289388 h -0.05168 v -0.987017 q 0.284219,-0.07751 0.821653,-0.170532 0.537433,-0.09302 1.059363,-0.09302 0.60978,0 1.059364,0.103352 0.454751,0.09819 0.785479,0.341064 0.32556,0.237711 0.496092,0.614947 0.170532,0.377237 0.170532,0.935341 z m -0.966347,-1.421097 v -1.607132 q -0.444415,0.02584 -1.049028,0.07751 -0.599444,0.05168 -0.950843,0.149861 -0.418578,0.118856 -0.676959,0.372069 -0.258382,0.248046 -0.258382,0.687295 0,0.496092 0.299723,0.749306 0.299722,0.248046 0.91467,0.248046 0.511595,0 0.93534,-0.19637 0.423746,-0.201538 0.785479,-0.480589 z" />
      <path
         id="path1486"
         style="fill:#ff0000"
         d="m 62.785607,95.87694 q 0,0.723467 -0.206705,1.302242 -0.201538,0.578774 -0.547769,0.971513 -0.366901,0.408243 -0.806149,0.614948 -0.439249,0.201537 -0.966347,0.201537 -0.490924,0 -0.857826,-0.118855 -0.366901,-0.113688 -0.723467,-0.310058 l -0.06201,0.268717 H 57.70583 v -8.040827 h 0.971514 v 2.8732 q 0.408242,-0.335896 0.868161,-0.547768 0.459919,-0.217041 1.033525,-0.217041 1.02319,0 1.6123,0.78548 0.594277,0.785479 0.594277,2.216912 z m -1.00252,0.02584 q 0,-1.033526 -0.341063,-1.565791 -0.341063,-0.537433 -1.100705,-0.537433 -0.423745,0 -0.857826,0.186034 -0.43408,0.180867 -0.806149,0.470254 v 3.307281 q 0.41341,0.186035 0.707964,0.258382 0.299723,0.07235 0.67696,0.07235 0.806149,0 1.2609,-0.527097 0.459919,-0.532266 0.459919,-1.663976 z" />
      <path
         id="path1488"
         style="fill:#ff0000"
         d="m 65.343583,92.068399 h -1.095536 v -1.007688 h 1.095536 z m -0.06201,6.738585 h -0.971514 v -5.772239 h 0.971514 z" />
      <path
         id="path1490"
         style="fill:#07651a;fill-opacity:1;stroke-width:0.264583"
         d="M 70.273499,95.907945 H 67.0489 v -0.93534 h 3.224599 z" />
      <path
         id="path1492"
         style="fill:#ffff00;fill-opacity:1;stroke-width:0.264583"
         d="m 77.844073,91.996052 q 0.470254,0.516763 0.7183,1.266068 0.253214,0.749306 0.253214,1.70015 0,0.950843 -0.258381,1.705316 -0.253214,0.749306 -0.713133,1.250566 -0.475422,0.52193 -1.126543,0.785479 -0.645953,0.263549 -1.477941,0.263549 -0.811317,0 -1.477941,-0.268716 -0.661456,-0.268717 -1.126543,-0.780312 -0.465086,-0.511595 -0.7183,-1.255733 -0.248046,-0.744138 -0.248046,-1.700149 0,-0.940508 0.248046,-1.684647 0.248046,-0.749306 0.723468,-1.281571 0.454751,-0.506428 1.126543,-0.775144 0.676959,-0.268717 1.472773,-0.268717 0.82682,0 1.483109,0.273884 0.661456,0.268717 1.121375,0.769977 z m -0.09302,2.966218 q 0,-1.498612 -0.671792,-2.30993 -0.671791,-0.816485 -1.834507,-0.816485 -1.173052,0 -1.844843,0.816485 -0.666624,0.811318 -0.666624,2.30993 0,1.514114 0.682127,2.320264 0.682127,0.800982 1.82934,0.800982 1.147213,0 1.824172,-0.800982 0.682127,-0.80615 0.682127,-2.320264 z" />
      <path
         id="path1494"
         style="fill:#ffff00"
         d="m 85.187268,98.806984 h -0.971514 v -3.286611 q 0,-0.397907 -0.04651,-0.744138 -0.04651,-0.351399 -0.170531,-0.547768 -0.129191,-0.217041 -0.372069,-0.320393 -0.242879,-0.10852 -0.630451,-0.10852 -0.397907,0 -0.831988,0.196369 -0.43408,0.19637 -0.831988,0.50126 v 4.309801 h -0.971513 v -5.772239 h 0.971513 v 0.640786 q 0.454752,-0.377237 0.940508,-0.58911 0.485757,-0.211873 0.997352,-0.211873 0.935341,0 1.426265,0.563272 0.490925,0.563271 0.490925,1.622635 z" />
      <path
         id="path1496"
         style="fill:#000080"
         d="M 88.0398,98.806984 H 87.068286 V 90.766157 H 88.0398 Z" />
      <path
         id="path1498"
         style="fill:#000080"
         d="m 91.016351,92.068399 h -1.095537 v -1.007688 h 1.095537 z m -0.06201,6.738585 h -0.971514 v -5.772239 h 0.971514 z" />
      <path
         id="path1500"
         style="fill:#000080"
         d="m 97.713597,98.806984 h -0.971514 v -3.286611 q 0,-0.397907 -0.04651,-0.744138 -0.04651,-0.351399 -0.170532,-0.547768 -0.129191,-0.217041 -0.372069,-0.320393 -0.242879,-0.10852 -0.630451,-0.10852 -0.397907,0 -0.831988,0.196369 -0.43408,0.19637 -0.831988,0.50126 v 4.309801 h -0.971513 v -5.772239 h 0.971513 v 0.640786 q 0.454752,-0.377237 0.940509,-0.58911 0.485756,-0.211873 0.997351,-0.211873 0.935341,0 1.426265,0.563272 0.490925,0.563271 0.490925,1.622635 z" />
      <path
         id="path1502"
         style="fill:#000080"
         d="m 104.41601,96.021633 h -4.25296 q 0,0.532266 0.1602,0.930173 0.16019,0.39274 0.43925,0.645953 0.26871,0.248046 0.63561,0.372069 0.37207,0.124023 0.81649,0.124023 0.58911,0 1.18338,-0.232543 0.59945,-0.237711 0.85266,-0.465086 h 0.0517 v 1.059363 q -0.49092,0.206705 -1.00252,0.346231 -0.5116,0.139526 -1.07487,0.139526 -1.4366,0 -2.242746,-0.775144 -0.80615,-0.780311 -0.80615,-2.211744 0,-1.41593 0.769976,-2.247918 0.77514,-0.831988 2.03605,-0.831988 1.16788,0 1.79833,0.682127 0.63562,0.682127 0.63562,1.93786 z m -0.94568,-0.744138 q -0.005,-0.764809 -0.38757,-1.183387 -0.37724,-0.418577 -1.15238,-0.418577 -0.78031,0 -1.2454,0.459918 -0.45992,0.459919 -0.52193,1.142046 z" />
    </g>
    <g
       id="g547"
       transform="translate(-51.971726,-21.166667)">
      <path
         style="fill:#008000;fill-opacity:1;stroke-width:0.197658"
         id="path69"
         d="m 1140.949,137.79569 c -0.4563,0.006 -0.9127,-0.007 -1.3682,0.0142 -0.2493,0.0267 -0.4794,0.0961 -0.6952,0.18439 -0.6205,0.25389 -0.9371,0.28468 -1.241,0.62721 -0.1451,0.21524 -0.1497,0.45402 -0.1557,0.68681 0.01,0.2647 -0.016,0.53097 0.03,0.7941 0.1113,0.32007 0.3659,0.42159 0.8007,0.5049 0.3856,0.087 0.7849,0.13272 1.1874,0.15991 0.3536,0.0152 0.7096,0.0313 1.0632,0.0102 0.5283,-0.0474 0.8789,-0.27177 1.3595,-0.47211 0.083,-0.0346 0.1747,-0.0769 0.2104,-0.14163 -0.032,-0.0224 -0.054,-0.056 -0.096,-0.0672 -0.033,-0.009 -0.2853,0.0811 -0.3082,0.09 -0.9675,0.37678 -0.7072,0.23322 -1.1144,0.4714 -0.3078,0.17499 -0.6421,0.32351 -0.9639,0.48482 -0.1673,0.0871 -0.329,0.18287 -0.5024,0.26422 -0.068,0.0317 -0.279,0.11687 -0.2097,0.0871 0.6642,-0.28538 0.8463,-0.33333 0.3706,-0.18539 -0.5609,0.15003 -1.0627,0.39202 -1.5661,0.61376 -0.073,0.032 -0.1341,0.0749 -0.2052,0.10856 -0.069,0.0325 -0.2847,0.11904 -0.2132,0.0897 0.2155,-0.0884 0.43,-0.17793 0.6451,-0.26691 -0.4489,0.13064 -0.9238,0.2059 -1.4047,0.25136 -0.4424,0.0342 -0.8881,0.0356 -1.3327,0.0368 -0.4177,0.0163 -0.8248,-0.0241 -1.227,-0.0982 -0.3701,-0.0803 -0.7519,-0.11295 -1.1374,-0.12788 -0.4234,-0.008 -0.8482,-0.0351 -1.2645,0.028 -0.5787,0.17866 -1.2787,0.39998 -1.5759,0.81571 -0.1746,0.29081 -0.3241,0.5904 -0.4753,0.88851 -0.1584,0.28968 -0.3394,0.57404 -0.5728,0.83851 -0.2338,0.30014 -0.4929,0.58254 -0.8308,0.83132 -0.3148,0.19448 -0.665,0.35607 -1.0232,0.5092 0.2191,-0.089 0.4397,-0.17627 0.6572,-0.26713 0.065,-0.0271 -0.1315,0.0519 -0.1989,0.0757 -0.3253,0.11464 -0.6711,0.16263 -1.0243,0.21859 -0.5406,0.0924 -1.0951,0.1271 -1.6495,0.14799 -0.4472,0.013 -0.8949,0.0127 -1.3424,0.0126 0,0 -0.8096,0.4064 -0.8096,0.4064 v 0 c 0.4496,3.2e-4 0.8994,0.001 1.3488,-0.0114 0.5579,-0.018 1.1172,-0.0495 1.6618,-0.13942 0.2716,-0.0428 0.5556,-0.0723 0.8191,-0.13603 0.5294,-0.1279 0.9331,-0.44907 1.4699,-0.5572 0.3571,-0.15656 0.71,-0.32046 1.0125,-0.52641 0.3293,-0.25578 0.5815,-0.54574 0.822,-0.84428 0.2241,-0.27175 0.4138,-0.55533 0.5646,-0.85054 0.1525,-0.29556 0.2932,-0.59657 0.4873,-0.87972 0.092,-0.10241 0.1854,-0.17721 0.3163,-0.25702 0.039,-0.0238 0.1657,-0.0853 0.1189,-0.0696 -0.1952,0.0655 -1.0984,0.41453 -0.5716,0.21531 0.4073,-0.0831 0.8279,-0.0517 1.2481,-0.0457 0.3801,0.013 0.7586,0.0384 1.1243,0.11633 0.407,0.0772 0.8179,0.13272 1.2428,0.11326 0.4474,-0.001 0.8958,-0.001 1.3416,-0.031 0.4875,-0.039 0.9643,-0.11568 1.4258,-0.23251 0.3548,-0.1381 0.7119,-0.27336 1.0644,-0.41428 0.1462,-0.0584 0.5694,-0.24726 0.4139,-0.2018 -0.2176,0.0636 -0.4145,0.1569 -0.6259,0.22995 -0.084,0.0291 0.1597,-0.0696 0.2444,-0.0981 0.078,-0.0261 0.1612,-0.0433 0.2417,-0.0649 0.733,-0.22361 1.4304,-0.49926 2.0531,-0.84744 0.3279,-0.15774 0.6534,-0.31661 0.9656,-0.48932 0.3406,-0.17554 0.2659,-0.131 -0.6075,0.21939 -0.095,0.0379 0.6277,-0.16189 0.2639,-0.17215 -0.07,0.0384 -0.2944,0.14062 -0.2148,0.11207 0.2404,-0.0862 0.4745,-0.18041 0.7118,-0.27061 -0.054,0.018 -0.1055,0.0411 -0.1628,0.054 -0.054,0.0122 -0.1126,0.0139 -0.1689,0.0208 -0.3476,0.0359 -0.7022,0.01 -1.0522,0.002 -0.3996,-0.0227 -0.7979,-0.0615 -1.1797,-0.14985 -0.374,-0.0615 -0.6571,-0.14959 -0.7367,-0.43415 -0.039,-0.26102 -0.018,-0.52433 -0.022,-0.78644 0.01,-0.22265 0.016,-0.45218 0.1799,-0.65095 0.2511,-0.23396 0.6854,-0.34427 -0.4574,0.084 -0.068,0.0253 0.1333,-0.0533 0.2011,-0.0784 0.265,-0.0981 0.1758,-0.0683 0.4703,-0.12996 0.4501,-0.0281 0.9025,-0.0126 1.3541,-0.0138 0,0 0.816,-0.40968 0.816,-0.40968 z" />
      <path
         style="fill:#ff0000;fill-opacity:1;stroke-width:0.197658"
         id="path71"
         d="m 1125.3166,137.90069 c 0.1536,0.30704 0.2247,0.62724 0.1565,0.94945 -0.046,0.27658 -0.343,0.40761 -0.663,0.53981 1.6212,-0.56618 -0.198,-0.0357 -0.5369,0.0475 -0.8033,0.18931 -1.5121,0.50237 -2.2378,0.80015 -0.2636,0.1975 -0.308,0.45696 -0.3309,0.71364 0.016,0.325 0.1649,0.48439 0.6056,0.59068 0.4045,0.0669 0.8217,0.0596 1.2316,0.10099 0.372,0.0535 0.7266,0.12822 0.9953,0.3203 0.186,0.18342 0.2347,0.40933 0.2046,0.6282 -0.071,0.24454 -0.2692,0.44003 -0.4797,0.63584 -0.2089,0.18988 -0.5021,0.32599 -0.7996,0.44251 -0.5327,0.2202 0.3493,-0.13181 0.5162,-0.20647 0.06,-0.0266 -0.1291,0.0412 -0.1955,0.0586 -0.1978,0.0517 -0.4011,0.0795 -0.6083,0.105 -0.4633,0.0827 -0.9404,0.10942 -1.4136,0.15008 -0.7553,0.0689 -1.5167,0.095 -2.2776,0.1133 -0.6534,0.0125 -1.3071,0.013 -1.9608,0.0129 -0.552,0.0179 -1.0782,0.002 -1.5757,-0.17306 -0.4492,-0.16355 -0.8077,-0.41013 -1.1276,-0.67823 -0.3101,-0.25968 -0.5047,-0.57084 -0.6644,-0.88589 -0.1386,-0.28619 -0.1896,-0.58515 -0.2132,-0.88486 -0.034,-0.31394 -0.026,-0.57054 0.1237,-0.86841 0.1562,-0.2479 0.4079,-0.43308 0.6994,-0.60808 0.2223,-0.10731 0.1105,-0.054 0.3354,-0.16 0,0 -0.9319,0.25327 -0.9319,0.25327 v 0 c -0.224,0.10857 -0.1139,0.0527 -0.3305,0.16775 -0.2903,0.18316 -0.5387,0.38446 -0.6804,0.64201 -0.1323,0.29232 -0.1345,0.58734 -0.1065,0.89178 0.029,0.30517 0.088,0.60888 0.2321,0.89966 0.1646,0.32257 0.3615,0.64174 0.6804,0.90753 0.3279,0.27417 0.6914,0.53065 1.1494,0.70052 0.5035,0.19334 1.0368,0.22173 1.6065,0.19938 0.6558,-6e-4 1.3117,-6e-4 1.9672,-0.0134 0.7608,-0.0165 1.5221,-0.0443 2.2784,-0.10611 0.4709,-0.0394 0.9501,-0.0571 1.4092,-0.14426 0.7578,-0.0801 1.39,-0.30317 2.0249,-0.62224 0.2963,-0.12592 0.5821,-0.26966 0.7843,-0.46877 0.2118,-0.20546 0.4031,-0.41574 0.4564,-0.67124 0.016,-0.23912 -0.039,-0.47955 -0.2453,-0.67839 -0.28,-0.20665 -0.6391,-0.29586 -1.033,-0.35797 -0.407,-0.0438 -0.8174,-0.0415 -1.2231,-0.0919 -0.4138,-0.0803 -0.5352,-0.20973 -0.5375,-0.51086 0.031,-0.24403 0.08,-0.48942 0.3682,-0.65646 -1.6683,0.64454 0.1349,-0.066 0.5199,-0.12465 0.7892,-0.19598 1.5571,-0.37404 2.2534,-0.7202 0.3323,-0.15002 0.5936,-0.30599 0.6279,-0.59642 0.047,-0.33284 -0.024,-0.66058 -0.1707,-0.97896 0,0 -0.883,0.33605 -0.883,0.33605 z" />
      <path
         style="fill:#07651a;fill-opacity:1;stroke-width:0.197658"
         id="path73"
         d="m 1126.5308,141.06234 c 0.1014,0.12219 0.1801,0.25237 0.2678,0.37936 0,0 0.8698,-0.34054 0.8698,-0.34054 v 0 c -0.088,-0.12961 -0.1682,-0.26168 -0.2647,-0.38843 0,0 -0.8729,0.34961 -0.8729,0.34961 z" />
      <path
         style="fill:#07651a;fill-opacity:1;stroke-width:0.197658"
         id="path75"
         d="m 1116.6,146.30369 c 0.4001,-0.0153 0.7911,0.0579 1.1607,0.15785 0,0 0.8343,-0.3858 0.8343,-0.3858 v 0 c -0.3706,-0.10802 -0.7748,-0.18534 -1.1791,-0.18173 0,0 -0.8159,0.40968 -0.8159,0.40968 z" />
      <path
         style="fill:#07651a;fill-opacity:1;stroke-width:0.197658"
         id="path77"
         d="m 1118.9418,146.21297 c 0.2428,0.0966 0.5059,0.16106 0.772,0.21859 0,0 0.8264,-0.38983 0.8264,-0.38983 v 0 c -0.2598,-0.0523 -0.5175,-0.1109 -0.7513,-0.20749 0,0 -0.8471,0.37873 -0.8471,0.37873 z" />
      <path
         style="fill:#550000;fill-opacity:1;stroke-width:0.197658"
         id="path83"
         d="m 1105.8098,139.78276 c 0.2758,0.38872 0.5519,0.77687 0.8396,1.16154 0.3409,0.52418 0.5879,1.07601 0.7786,1.63465 0.1239,0.40482 0.1865,0.81842 0.3336,1.2195 0.1656,0.36838 0.3203,0.73833 0.4704,1.10988 0.08,0.153 0.1574,0.30625 0.2297,0.46096 0,0 0.8763,-0.33309 0.8763,-0.33309 v 0 c -0.074,-0.15324 -0.1525,-0.30501 -0.2297,-0.45739 -0.1484,-0.37102 -0.3142,-0.73771 -0.4734,-1.10648 -0.1389,-0.40168 -0.2053,-0.81413 -0.3393,-1.21696 -0.2001,-0.56274 -0.4516,-1.11862 -0.7869,-1.6504 -0.29,-0.38386 -0.5656,-0.77195 -0.8236,-1.16666 0,0 -0.8753,0.34445 -0.8753,0.34445 z" />
      <path
         style="fill:#07651a;fill-opacity:1;stroke-width:0.197658"
         id="path85"
         d="m 1104.2556,137.11182 c -0.3095,0.16716 -0.56,0.31573 -0.3993,0.59927 0.2129,0.2318 0.5901,0.33215 0.9535,0.41029 0.1418,0.038 0.7199,0.0271 0.6358,0.21292 -0.2361,0.17972 -1.3376,0.60549 -0.057,0.0727 0,0 -0.7751,0.42928 -0.7751,0.42928 v 0 c 0.3764,-0.1454 1.4444,-0.45317 1.7362,-0.81591 -0.03,-0.25374 -0.4248,-0.25118 -0.713,-0.28969 -0.3353,-0.065 -0.6971,-0.14863 -0.8998,-0.35786 -0.1204,-0.23385 0.2101,-0.39286 0.4598,-0.512 0,0 -0.9412,0.25095 -0.9412,0.25095 z" />
      <path
         style="fill:#ffff00;fill-opacity:1;stroke-width:0.197658"
         id="path87"
         d="m 1103.408,141.53907 c 0.1967,0.30343 0.3014,0.62875 0.4514,0.94364 0.1291,0.28383 0.1571,0.58115 0.1758,0.87637 0,0.2192 0.095,0.47334 -0.1538,0.64183 1.3546,-0.53746 0.777,-0.28005 0.3808,-0.24201 -0.2307,0.0222 -0.4654,0.0237 -0.6977,0.0279 -0.482,0.0361 -0.8889,-0.059 -1.2978,-0.22747 -0.3659,-0.13486 -0.6446,-0.31998 -0.8591,-0.56253 -0.1744,-0.27709 -0.3064,-0.56929 -0.4138,-0.86229 -0.1135,-0.36423 -0.2405,-0.72779 -0.3874,-1.08637 -0.1387,-0.34054 -0.3032,-0.67484 -0.4687,-1.00934 -0.1529,-0.37198 -0.2776,-0.74815 -0.4382,-1.11875 -0.092,-0.19653 -0.2085,-0.38639 -0.3217,-0.5774 0,0 -0.8737,0.338 -0.8737,0.338 v 0 c 0.1133,0.18844 0.2284,0.37606 0.32,0.57028 0.1628,0.37077 0.2886,0.74725 0.4431,1.11956 0.162,0.33412 0.322,0.66853 0.4645,1.00699 0.1473,0.35816 0.2719,0.7214 0.3839,1.08557 0.1112,0.29935 0.2447,0.59915 0.4243,0.88202 0.2231,0.25131 0.5077,0.4491 0.8888,0.58847 0.4147,0.17782 0.8311,0.29827 1.3288,0.26041 1.0135,-0.0136 1.0482,-0.003 2.0512,-0.4668 0.1899,-0.20642 0.122,-0.45125 0.1164,-0.68509 -0.023,-0.30103 -0.055,-0.60408 -0.1891,-0.89301 -0.154,-0.31436 -0.2652,-0.63773 -0.4451,-0.94601 0,0 -0.8829,0.33605 -0.8829,0.33605 z" />
      <path
         style="fill:#ffff00;fill-opacity:1;stroke-width:0.197658"
         id="path89"
         d="m 1100.1326,143.40713 c 0.026,0.33425 -0.014,0.66463 -0.1735,0.98125 -0.1912,0.26376 -0.4681,0.48906 -0.7796,0.68822 -0.4835,0.21998 0.3789,-0.14044 0.5552,-0.2248 0.05,-0.024 -0.1143,0.0297 -0.173,0.0412 -0.1782,0.0349 -0.3611,0.046 -0.5446,0.0572 -0.386,6.1e-4 -0.7846,0.0412 -1.1653,-0.0123 -0.1792,-0.0307 -0.3255,-0.0907 -0.4727,-0.1646 0,0 -0.8472,0.36972 -0.8472,0.36972 v 0 c 0.1529,0.0838 0.3025,0.15166 0.4933,0.18896 0.3807,0.0767 0.7921,0.0217 1.1848,0.03 0.717,-0.0324 1.3381,-0.18633 1.8968,-0.54953 0.3037,-0.21135 0.5884,-0.43976 0.7561,-0.71781 0.1453,-0.3263 0.1786,-0.66335 0.1684,-1.00395 0,0 -0.8987,0.31643 -0.8987,0.31643 z" />
      <path
         style="fill:#07651a;fill-opacity:1;stroke-width:0.197658"
         id="path91"
         d="m 1102.1231,140.34543 c -0.098,0.16814 -0.1829,0.33859 -0.3103,0.49741 0,0 0.9175,-0.286 0.9175,-0.286 v 0 c 0.1139,-0.16566 0.2048,-0.33782 0.3052,-0.50753 0,0 -0.9124,0.29612 -0.9124,0.29612 z" />
      <path
         style="fill:#ffff00;fill-opacity:1;stroke-width:0.197658"
         id="path93"
         d="m 1094.6523,140.11979 c 0.3774,0.19643 0.6779,0.45014 0.9896,0.69263 0.2694,0.1643 0.5002,0.35474 0.7262,0.54698 0.2849,0.23005 0.4715,0.50232 0.6907,0.7614 0.256,0.24492 0.4174,0.52572 0.6065,0.79539 0.1301,0.20091 0.2434,0.40918 0.328,0.62166 0.082,0.15483 0.1405,0.31455 0.2182,0.47035 0,0 0.8786,-0.33494 0.8786,-0.33494 v 0 c -0.075,-0.15494 -0.1356,-0.31302 -0.2142,-0.46733 -0.088,-0.21617 -0.2015,-0.42879 -0.3389,-0.63209 -0.1934,-0.26995 -0.3564,-0.55227 -0.6118,-0.79915 -0.2216,-0.26204 -0.414,-0.5358 -0.6963,-0.77123 -0.2259,-0.19395 -0.4547,-0.38824 -0.7316,-0.54895 -0.3187,-0.24251 -0.6207,-0.49835 -0.9916,-0.70519 0,0 -0.8534,0.37047 -0.8534,0.37047 z" />
      <path
         style="fill:#000080;fill-opacity:1;stroke-width:0.197658"
         id="path99"
         d="m 1091.1799,138.95699 c 0.1671,0.32261 0.288,0.65496 0.4585,0.97669 0.1842,0.31665 0.2737,0.65139 0.3204,0.98947 0.061,0.3393 0.018,0.54442 -0.3103,0.80535 -0.5418,0.24521 0.3368,-0.12073 0.4929,-0.19456 0.057,-0.0268 -0.1264,0.0373 -0.1915,0.0522 -0.1863,0.0427 -0.3775,0.0592 -0.5714,0.0744 -0.4709,0.0122 -0.6347,-0.11874 -0.831,-0.39285 -0.2225,-0.36363 -0.4483,-0.72615 -0.66,-1.09301 -0.1428,-0.35091 0.069,-0.39658 -0.9083,0.19379 -0.038,0.0231 0.052,0.0605 0.075,0.0917 0.082,0.11151 0.094,0.14027 0.1611,0.25912 0.156,0.36147 0.3718,0.70896 0.5432,1.06707 0.2392,0.40419 0.4614,0.81359 0.6789,1.22383 0.2339,0.44548 0.386,0.905 0.4705,1.37446 0.028,0.25309 0.094,0.52961 -0.042,0.77584 -0.057,0.10362 -0.1773,0.18365 -0.2797,0.26444 -0.059,0.0441 -0.1124,0.0914 -0.1757,0.13222 -0.1421,0.0916 -0.6459,0.29862 -0.4868,0.22152 0.1696,-0.0822 0.3758,-0.12966 0.5278,-0.22698 0.093,-0.0594 -0.2289,0.0746 -0.3447,0.10973 -0.1105,0.0335 -0.2228,0.064 -0.3342,0.096 -0.4864,0.141 -0.9973,0.21539 -1.5203,0.24617 -0.6031,0.0619 -1.1443,-0.0835 -1.6933,-0.23591 -0.5657,-0.15954 -1.0453,-0.41946 -1.4785,-0.71183 -0.3077,-0.24757 -0.4705,-0.55657 -0.5865,-0.8684 -0.093,-0.29063 -0.1039,-0.58947 -0.1114,-0.88591 0,-0.29746 0,-0.59497 -4e-4,-0.89245 0.015,-0.34683 0.2661,-0.64177 0.501,-0.93677 0.1938,-0.27967 0.4764,-0.52066 0.7399,-0.76938 0,0 -0.9232,0.27617 -0.9232,0.27617 v 0 c -0.2598,0.25058 -0.5329,0.4958 -0.7273,0.77512 -0.2394,0.30409 -0.4749,0.613 -0.482,0.96858 -7e-4,0.29812 0,0.59625 4e-4,0.89436 0.011,0.30116 0.025,0.60493 0.1244,0.89956 0.1247,0.3235 0.2972,0.64174 0.6166,0.89935 0.441,0.29876 0.9311,0.56471 1.5047,0.73193 0.5525,0.15693 1.1006,0.32215 1.7116,0.26599 0.5318,-0.0258 1.0525,-0.0926 1.5484,-0.23409 0.8962,-0.25102 1.8504,-0.52385 2.5079,-1.02543 0.3969,-0.36191 0.3526,-0.65389 0.2806,-1.08854 -0.089,-0.47344 -0.2475,-0.93745 -0.4843,-1.38674 -0.2169,-0.41009 -0.4313,-0.82108 -0.6696,-1.22529 -0.1767,-0.35806 -0.3909,-0.70738 -0.5422,-1.07126 -0.018,-0.0319 -0.2146,-0.36865 -0.2327,-0.36497 -1.0269,0.20957 -1.0025,0.1229 -0.8391,0.49313 0.2171,0.36717 0.4475,0.73051 0.661,1.0986 0.2087,0.29188 0.391,0.45673 0.8952,0.46401 0.7499,-0.0455 1.4322,-0.24214 1.9959,-0.61665 0.3021,-0.28065 0.3405,-0.51023 0.2755,-0.8532 -0.05,-0.34307 -0.1497,-0.68202 -0.3353,-1.00351 -0.1676,-0.32224 -0.2941,-0.65352 -0.4466,-0.97917 0,0 -0.8829,0.33605 -0.8829,0.33605 z" />
      <path
         style="fill:#07651a;fill-opacity:1;stroke-width:0.197658"
         id="path101"
         d="m 1092.7841,143.52344 c 0.3086,0.13761 0.6193,0.27064 0.9212,0.41559 0,0 0.8436,-0.37206 0.8436,-0.37206 v 0 c -0.3008,-0.14199 -0.6058,-0.27736 -0.9113,-0.414 0,0 -0.8535,0.37047 -0.8535,0.37047 z" />
      <path
         style="fill:#07651a;fill-opacity:1;stroke-width:0.197658"
         id="path105"
         d="m 1094.6285,143.63777 c 0.2206,0.14984 0.3725,0.33634 0.5324,0.517 0,0 0.8629,-0.34628 0.8629,-0.34628 v 0 c -0.1636,-0.18521 -0.3212,-0.37433 -0.5349,-0.53512 0,0 -0.8604,0.3644 -0.8604,0.3644 z" />
      <path
         style="fill:#07651a;fill-opacity:1;stroke-width:0.197658"
         id="path107"
         d="m 1087.044,143.49621 c 0.3534,0.0606 0.702,0.13524 1.034,0.23844 0,0 0.832,-0.38045 0.832,-0.38045 v 0 c -0.3332,-0.11149 -0.6874,-0.18234 -1.0405,-0.25825 0,0 -0.8255,0.40026 -0.8255,0.40026 z" />
    </g>
  </g>
</svg>
