<?xml version="1.0" encoding="UTF-8" standalone="no"?>
<svg
   xmlns:dc="http://purl.org/dc/elements/1.1/"
   xmlns:cc="http://creativecommons.org/ns#"
   xmlns:rdf="http://www.w3.org/1999/02/22-rdf-syntax-ns#"
   xmlns:svg="http://www.w3.org/2000/svg"
   xmlns="http://www.w3.org/2000/svg"
   xmlns:sodipodi="http://sodipodi.sourceforge.net/DTD/sodipodi-0.dtd"
   xmlns:inkscape="http://www.inkscape.org/namespaces/inkscape"
   width="65.473854mm"
   height="8.2010231mm"
   viewBox="0 0 65.473854 8.201023"
   version="1.1"
   id="svg154"
   inkscape:version="1.0 (4035a4fb49, 2020-05-01)"
   sodipodi:docname="logo-arabionline_de.svg">
  <defs
     id="defs148">
    <rect
       x="30.71048"
       y="86.608421"
       width="79.186012"
       height="41.766369"
       id="rect1033" />
  </defs>
  <sodipodi:namedview
     id="base"
     pagecolor="#ffffff"
     bordercolor="#666666"
     borderopacity="1.0"
     inkscape:pageopacity="0.0"
     inkscape:pageshadow="2"
     inkscape:zoom="1.4"
     inkscape:cx="296.04702"
     inkscape:cy="-19.84007"
     inkscape:document-units="mm"
     inkscape:current-layer="layer1"
     inkscape:document-rotation="0"
     showgrid="false"
     fit-margin-top="0"
     fit-margin-left="0"
     fit-margin-right="0"
     fit-margin-bottom="0"
     inkscape:window-width="1256"
     inkscape:window-height="861"
     inkscape:window-x="26"
     inkscape:window-y="0"
     inkscape:window-maximized="0" />
  <metadata
     id="metadata151">
    <rdf:RDF>
      <cc:Work
         rdf:about="">
        <dc:format>image/svg+xml</dc:format>
        <dc:type
           rdf:resource="http://purl.org/dc/dcmitype/StillImage" />
        <dc:title></dc:title>
      </cc:Work>
    </rdf:RDF>
  </metadata>
  <g
     inkscape:label="Ebene 1"
     inkscape:groupmode="layer"
     id="layer1"
     transform="translate(-1026.8247,-125.59719)">
    <text
       xml:space="preserve"
       id="text1031"
       style="font-style:normal;font-weight:normal;font-size:10.5833px;line-height:1.25;font-family:sans-serif;white-space:pre;shape-inside:url(#rect1033);fill:#000000;fill-opacity:1;stroke:none;" />
    <g
       transform="translate(987.88257,34.831036)"
       style="font-style:normal;font-weight:normal;font-size:10.5833px;line-height:1.25;font-family:sans-serif;opacity:1;fill:#07651a;fill-opacity:1;stroke:none;stroke-width:0.264583"
       id="text49"
       aria-label="Arabi-Online   ">
      <path
         id="path1480"
         style="fill:#07651a;fill-opacity:1;stroke-width:0.264583"
         d="m 45.908139,98.806984 h -1.09037 l -0.754473,-2.144565 h -3.327952 l -0.754473,2.144565 h -1.038693 l 2.800853,-7.694596 h 1.364254 z m -2.160068,-3.023062 -1.348751,-3.777535 -1.353918,3.777535 z" />
      <path
         id="path1482"
         style="fill:#07651a;fill-opacity:1;stroke-width:0.264583"
         d="m 50.600343,94.094108 h -0.05168 q -0.21704,-0.05168 -0.423745,-0.07235 -0.201538,-0.02584 -0.480589,-0.02584 -0.449584,0 -0.868162,0.201538 -0.418578,0.19637 -0.80615,0.511595 v 4.097928 H 46.998504 V 93.03474 h 0.971513 v 0.852658 q 0.578775,-0.465086 1.018023,-0.656288 0.444416,-0.19637 0.904335,-0.19637 0.253213,0 0.366901,0.0155 0.113688,0.01033 0.341063,0.04651 z" />
      <path
         id="path1484"
         style="fill:#07651a;fill-opacity:1;stroke-width:0.264583"
         d="m 55.824814,98.806984 h -0.966347 v -0.614948 q -0.12919,0.08785 -0.351398,0.248046 -0.21704,0.155029 -0.423746,0.248047 -0.242878,0.118855 -0.558103,0.196369 -0.315225,0.08268 -0.738971,0.08268 -0.780312,0 -1.322912,-0.516762 -0.542601,-0.516763 -0.542601,-1.317745 0,-0.656289 0.279052,-1.059364 0.284219,-0.408242 0.806149,-0.640785 0.527098,-0.232544 1.266069,-0.315226 0.738971,-0.08268 1.586461,-0.124023 v -0.149861 q 0,-0.330728 -0.118855,-0.547768 -0.113688,-0.217041 -0.330728,-0.341064 -0.206705,-0.118855 -0.496092,-0.160196 -0.289387,-0.04134 -0.604613,-0.04134 -0.382404,0 -0.852658,0.103352 -0.470254,0.09819 -0.971514,0.289388 h -0.05168 v -0.987017 q 0.284219,-0.07751 0.821653,-0.170532 0.537433,-0.09302 1.059363,-0.09302 0.60978,0 1.059364,0.103352 0.454751,0.09819 0.785479,0.341064 0.32556,0.237711 0.496092,0.614947 0.170532,0.377237 0.170532,0.935341 z m -0.966347,-1.421097 v -1.607132 q -0.444415,0.02584 -1.049028,0.07751 -0.599444,0.05168 -0.950843,0.149861 -0.418578,0.118856 -0.676959,0.372069 -0.258382,0.248046 -0.258382,0.687295 0,0.496092 0.299723,0.749306 0.299722,0.248046 0.91467,0.248046 0.511595,0 0.93534,-0.19637 0.423746,-0.201538 0.785479,-0.480589 z" />
      <path
         id="path1486"
         style="fill:#ff0000"
         d="m 62.785607,95.87694 q 0,0.723467 -0.206705,1.302242 -0.201538,0.578774 -0.547769,0.971513 -0.366901,0.408243 -0.806149,0.614948 -0.439249,0.201537 -0.966347,0.201537 -0.490924,0 -0.857826,-0.118855 -0.366901,-0.113688 -0.723467,-0.310058 l -0.06201,0.268717 H 57.70583 v -8.040827 h 0.971514 v 2.8732 q 0.408242,-0.335896 0.868161,-0.547768 0.459919,-0.217041 1.033525,-0.217041 1.02319,0 1.6123,0.78548 0.594277,0.785479 0.594277,2.216912 z m -1.00252,0.02584 q 0,-1.033526 -0.341063,-1.565791 -0.341063,-0.537433 -1.100705,-0.537433 -0.423745,0 -0.857826,0.186034 -0.43408,0.180867 -0.806149,0.470254 v 3.307281 q 0.41341,0.186035 0.707964,0.258382 0.299723,0.07235 0.67696,0.07235 0.806149,0 1.2609,-0.527097 0.459919,-0.532266 0.459919,-1.663976 z" />
      <path
         id="path1488"
         style="fill:#ff0000"
         d="m 65.343583,92.068399 h -1.095536 v -1.007688 h 1.095536 z m -0.06201,6.738585 h -0.971514 v -5.772239 h 0.971514 z" />
      <path
         id="path1490"
         style="fill:#07651a;fill-opacity:1;stroke-width:0.264583"
         d="M 70.273499,95.907945 H 67.0489 v -0.93534 h 3.224599 z" />
      <path
         id="path1492"
         style="fill:#ffff00;fill-opacity:1;stroke-width:0.264583"
         d="m 77.844073,91.996052 q 0.470254,0.516763 0.7183,1.266068 0.253214,0.749306 0.253214,1.70015 0,0.950843 -0.258381,1.705316 -0.253214,0.749306 -0.713133,1.250566 -0.475422,0.52193 -1.126543,0.785479 -0.645953,0.263549 -1.477941,0.263549 -0.811317,0 -1.477941,-0.268716 -0.661456,-0.268717 -1.126543,-0.780312 -0.465086,-0.511595 -0.7183,-1.255733 -0.248046,-0.744138 -0.248046,-1.700149 0,-0.940508 0.248046,-1.684647 0.248046,-0.749306 0.723468,-1.281571 0.454751,-0.506428 1.126543,-0.775144 0.676959,-0.268717 1.472773,-0.268717 0.82682,0 1.483109,0.273884 0.661456,0.268717 1.121375,0.769977 z m -0.09302,2.966218 q 0,-1.498612 -0.671792,-2.30993 -0.671791,-0.816485 -1.834507,-0.816485 -1.173052,0 -1.844843,0.816485 -0.666624,0.811318 -0.666624,2.30993 0,1.514114 0.682127,2.320264 0.682127,0.800982 1.82934,0.800982 1.147213,0 1.824172,-0.800982 0.682127,-0.80615 0.682127,-2.320264 z" />
      <path
         id="path1494"
         style="fill:#ffff00"
         d="m 85.187268,98.806984 h -0.971514 v -3.286611 q 0,-0.397907 -0.04651,-0.744138 -0.04651,-0.351399 -0.170531,-0.547768 -0.129191,-0.217041 -0.372069,-0.320393 -0.242879,-0.10852 -0.630451,-0.10852 -0.397907,0 -0.831988,0.196369 -0.43408,0.19637 -0.831988,0.50126 v 4.309801 h -0.971513 v -5.772239 h 0.971513 v 0.640786 q 0.454752,-0.377237 0.940508,-0.58911 0.485757,-0.211873 0.997352,-0.211873 0.935341,0 1.426265,0.563272 0.490925,0.563271 0.490925,1.622635 z" />
      <path
         id="path1496"
         style="fill:#000080"
         d="M 88.0398,98.806984 H 87.068286 V 90.766157 H 88.0398 Z" />
      <path
         id="path1498"
         style="fill:#000080"
         d="m 91.016351,92.068399 h -1.095537 v -1.007688 h 1.095537 z m -0.06201,6.738585 h -0.971514 v -5.772239 h 0.971514 z" />
      <path
         id="path1500"
         style="fill:#000080"
         d="m 97.713597,98.806984 h -0.971514 v -3.286611 q 0,-0.397907 -0.04651,-0.744138 -0.04651,-0.351399 -0.170532,-0.547768 -0.129191,-0.217041 -0.372069,-0.320393 -0.242879,-0.10852 -0.630451,-0.10852 -0.397907,0 -0.831988,0.196369 -0.43408,0.19637 -0.831988,0.50126 v 4.309801 h -0.971513 v -5.772239 h 0.971513 v 0.640786 q 0.454752,-0.377237 0.940509,-0.58911 0.485756,-0.211873 0.997351,-0.211873 0.935341,0 1.426265,0.563272 0.490925,0.563271 0.490925,1.622635 z" />
      <path
         id="path1502"
         style="fill:#000080"
         d="m 104.41601,96.021633 h -4.25296 q 0,0.532266 0.1602,0.930173 0.16019,0.39274 0.43925,0.645953 0.26871,0.248046 0.63561,0.372069 0.37207,0.124023 0.81649,0.124023 0.58911,0 1.18338,-0.232543 0.59945,-0.237711 0.85266,-0.465086 h 0.0517 v 1.059363 q -0.49092,0.206705 -1.00252,0.346231 -0.5116,0.139526 -1.07487,0.139526 -1.4366,0 -2.242746,-0.775144 -0.80615,-0.780311 -0.80615,-2.211744 0,-1.41593 0.769976,-2.247918 0.77514,-0.831988 2.03605,-0.831988 1.16788,0 1.79833,0.682127 0.63562,0.682127 0.63562,1.93786 z m -0.94568,-0.744138 q -0.005,-0.764809 -0.38757,-1.183387 -0.37724,-0.418577 -1.15238,-0.418577 -0.78031,0 -1.2454,0.459918 -0.45992,0.459919 -0.52193,1.142046 z" />
    </g>
  </g>
</svg>
