<?xml version="1.0" encoding="UTF-8" standalone="no"?>
<svg
   xmlns:dc="http://purl.org/dc/elements/1.1/"
   xmlns:cc="http://creativecommons.org/ns#"
   xmlns:rdf="http://www.w3.org/1999/02/22-rdf-syntax-ns#"
   xmlns:svg="http://www.w3.org/2000/svg"
   xmlns="http://www.w3.org/2000/svg"
   xmlns:sodipodi="http://sodipodi.sourceforge.net/DTD/sodipodi-0.dtd"
   xmlns:inkscape="http://www.inkscape.org/namespaces/inkscape"
   sodipodi:docname="logo-arabionline.svg"
   inkscape:version="1.0 (4035a4fb49, 2020-05-01)"
   id="svg154"
   version="1.1"
   viewBox="0 0 66.712967 27.110544"
   height="27.110544mm"
   width="66.712967mm">
  <defs
     id="defs148">
    <rect
       id="rect1033"
       height="41.766369"
       width="79.186012"
       y="86.608419"
       x="30.710479" />
  </defs>
  <sodipodi:namedview
     inkscape:window-maximized="0"
     inkscape:window-y="0"
     inkscape:window-x="26"
     inkscape:window-height="861"
     inkscape:window-width="1256"
     fit-margin-bottom="0"
     fit-margin-right="0"
     fit-margin-left="0"
     fit-margin-top="0"
     showgrid="false"
     inkscape:document-rotation="0"
     inkscape:current-layer="layer1"
     inkscape:document-units="mm"
     inkscape:cy="111.80479"
     inkscape:cx="107.74225"
     inkscape:zoom="1.4"
     inkscape:pageshadow="2"
     inkscape:pageopacity="0.0"
     borderopacity="1.0"
     bordercolor="#666666"
     pagecolor="#ffffff"
     id="base" />
  <metadata
     id="metadata151">
    <rdf:RDF>
      <cc:Work
         rdf:about="">
        <dc:format>image/svg+xml</dc:format>
        <dc:type
           rdf:resource="http://purl.org/dc/dcmitype/StillImage" />
        <dc:title></dc:title>
      </cc:Work>
    </rdf:RDF>
  </metadata>
  <g
     transform="translate(-37.703039,-90.766157)"
     id="layer1"
     inkscape:groupmode="layer"
     inkscape:label="Ebene 1">
    <text
       xml:space="preserve"
       style="font-style:normal;font-weight:normal;font-size:10.5833px;line-height:1.25;font-family:sans-serif;opacity:1;fill:#07651a;fill-opacity:1;stroke:none;stroke-width:0.264583"
       x="38.807819"
       y="98.806984"
       id="text49"><tspan
         sodipodi:role="line"
         x="38.807819"
         y="98.806984"
         style="fill:#07651a;fill-opacity:1;stroke-width:0.264583"
         id="tspan51">Ara<tspan
   id="tspan1029"
   style="fill:#ff0000">bi</tspan>-<tspan
   style="fill:#ffff00;fill-opacity:1;stroke-width:0.264583"
   id="tspan111">O</tspan><tspan
   id="tspan1025"
   style="fill:#ffff00">n</tspan><tspan
   id="tspan1027"
   style="fill:#000080">line</tspan></tspan><tspan
         sodipodi:role="line"
         x="38.807819"
         y="112.03611"
         style="fill:#07651a;fill-opacity:1;stroke-width:0.264583"
         id="tspan55">  </tspan></text>
    <path
       style="fill:#008000;stroke-width:0.264583;fill-opacity:1;opacity:1"
       id="path69"
       d="m 101.6438,103.92267 c -0.50777,0.009 -1.01565,-0.0114 -1.52251,0.0229 -0.277352,0.043 -0.533493,0.15477 -0.773573,0.29691 -0.690491,0.40882 -1.04276,0.4584 -1.381019,1.00996 -0.161391,0.34658 -0.166492,0.73108 -0.17318,1.10592 0.009,0.42623 -0.01839,0.85498 0.0332,1.27869 0.12383,0.51538 0.407098,0.67886 0.890939,0.813 0.429101,0.14012 0.873411,0.21371 1.321363,0.25749 0.39348,0.0245 0.78966,0.0504 1.18304,0.0164 0.58796,-0.0764 0.97801,-0.43762 1.51286,-0.76021 0.0924,-0.0558 0.19445,-0.12382 0.23416,-0.22806 -0.0357,-0.0361 -0.0597,-0.0902 -0.1072,-0.10821 -0.0369,-0.014 -0.31746,0.13058 -0.34301,0.14497 -1.07657,0.6067 -0.78697,0.37554 -1.24003,0.75907 -0.34257,0.28177 -0.7145,0.52092 -1.07261,0.78067 -0.18618,0.14023 -0.366102,0.29447 -0.559102,0.42545 -0.0751,0.051 -0.31042,0.1882 -0.23335,0.14028 0.739102,-0.45953 0.941812,-0.53675 0.412459,-0.29853 -0.624199,0.24158 -1.182629,0.63125 -1.742749,0.9883 -0.0808,0.0515 -0.149252,0.12061 -0.228312,0.1748 -0.0764,0.0524 -0.316889,0.19169 -0.237278,0.1444 0.23977,-0.14241 0.47852,-0.28652 0.71778,-0.42979 -0.499441,0.21035 -1.027962,0.33154 -1.56306,0.40474 -0.4923,0.0551 -0.988251,0.0574 -1.48299,0.0593 -0.46482,0.0263 -0.917771,-0.0389 -1.365422,-0.15818 -0.411819,-0.12924 -0.836639,-0.18188 -1.265608,-0.20591 -0.471191,-0.0124 -0.94384,-0.0565 -1.4072,0.0451 -0.643861,0.28768 -1.422802,0.64406 -1.75356,1.31348 -0.194299,0.46827 -0.360669,0.95068 -0.52887,1.4307 -0.176271,0.46645 -0.377672,0.92434 -0.637432,1.3502 -0.260199,0.48329 -0.548539,0.93803 -0.924539,1.33861 -0.3503,0.31317 -0.74001,0.57336 -1.138539,0.81994 0.24379,-0.14338 0.48931,-0.28384 0.731348,-0.43014 0.0721,-0.0436 -0.14632,0.0836 -0.221358,0.12188 -0.362,0.18459 -0.746861,0.26186 -1.13987,0.35197 -0.60148,0.14878 -1.218621,0.20467 -1.835531,0.23831 -0.497621,0.021 -0.99582,0.0205 -1.49379,0.0202 0,0 -0.900859,0.6544 -0.900859,0.6544 v 0 c 0.50033,5.3e-4 1.000808,0.002 1.50086,-0.0183 0.6208,-0.029 1.243179,-0.0798 1.8493,-0.2245 0.302159,-0.0689 0.618159,-0.11648 0.911468,-0.21904 0.589082,-0.20596 1.038262,-0.72312 1.635652,-0.89723 0.397369,-0.25209 0.79004,-0.51602 1.126699,-0.84764 0.366389,-0.41186 0.647059,-0.87877 0.91464,-1.35948 0.24941,-0.43759 0.4605,-0.89421 0.628251,-1.36957 0.169709,-0.47592 0.32635,-0.96062 0.542319,-1.41656 0.102219,-0.1649 0.206261,-0.28535 0.351959,-0.41385 0.0434,-0.0383 0.184381,-0.13735 0.132361,-0.1121 -0.217239,0.10544 -1.222301,0.66749 -0.636101,0.34671 0.453192,-0.13374 0.921271,-0.0833 1.38884,-0.0736 0.42295,0.0209 0.844162,0.0619 1.251101,0.18732 0.45293,0.12434 0.91018,0.21371 1.38294,0.18238 0.497909,-0.002 0.996882,-0.002 1.492981,-0.0499 0.542459,-0.0628 1.07298,-0.18627 1.586499,-0.3744 0.39482,-0.22237 0.79225,-0.44017 1.184479,-0.66709 0.162642,-0.0941 0.633661,-0.39814 0.460611,-0.32494 -0.242139,0.10244 -0.46132,0.25265 -0.696468,0.37027 -0.0937,0.0469 0.177609,-0.11215 0.271909,-0.1579 0.0866,-0.042 0.17934,-0.0697 0.26901,-0.1045 0.815621,-0.36006 1.591662,-0.80393 2.284552,-1.36458 0.36495,-0.25399 0.7271,-0.50981 1.07452,-0.78791 0.37908,-0.28266 0.2959,-0.21094 -0.67598,0.35326 -0.10534,0.0611 0.69853,-0.26067 0.29365,-0.2772 -0.0784,0.0619 -0.32756,0.22644 -0.23896,0.18046 0.26745,-0.13878 0.52799,-0.29049 0.79198,-0.43574 -0.0603,0.029 -0.11741,0.0662 -0.18106,0.087 -0.0605,0.0197 -0.12533,0.0223 -0.188,0.0335 -0.38683,0.0578 -0.78137,0.0158 -1.17083,0.003 -0.4447,-0.0365 -0.88796,-0.099 -1.312832,-0.24129 -0.416161,-0.0991 -0.731171,-0.24088 -0.819769,-0.69908 -0.0435,-0.4203 -0.02019,-0.8443 -0.02429,-1.26635 0.01,-0.35852 0.01781,-0.72811 0.200221,-1.04818 0.279429,-0.37673 0.762709,-0.55436 -0.508971,0.13527 -0.0753,0.0408 0.148312,-0.0858 0.2238,-0.12624 0.294801,-0.15804 0.195562,-0.11004 0.52329,-0.20927 0.50088,-0.0453 1.004281,-0.0203 1.506831,-0.0223 0,0 0.90797,-0.65968 0.90797,-0.65968 z" />
    <path
       style="fill:#ff0000;stroke-width:0.264583;fill-opacity:1;opacity:1"
       id="path71"
       d="m 84.248446,104.09175 c 0.17086,0.49441 0.25005,1.01 0.17408,1.52883 -0.0515,0.44537 -0.38164,0.65635 -0.737729,0.86923 1.80408,-0.91169 -0.22034,-0.0575 -0.597509,0.0764 -0.893831,0.30484 -1.682552,0.80893 -2.490131,1.28843 -0.29336,0.31802 -0.34272,0.7358 -0.36816,1.14912 0.01749,0.52333 0.18342,0.77999 0.673851,0.95113 0.450128,0.10773 0.91431,0.096 1.370539,0.16262 0.413909,0.0862 0.808461,0.20647 1.10753,0.51576 0.20691,0.29535 0.261141,0.65911 0.227669,1.01154 -0.0788,0.39377 -0.29958,0.70856 -0.533789,1.02385 -0.232479,0.30576 -0.55871,0.52493 -0.88977,0.71255 -0.59282,0.35457 0.388689,-0.21224 0.574389,-0.33247 0.0663,-0.0429 -0.143618,0.0663 -0.217529,0.0943 -0.22011,0.0833 -0.446321,0.12796 -0.676969,0.16908 -0.515511,0.13318 -1.046432,0.17618 -1.57295,0.24166 -0.840502,0.11094 -1.687841,0.15298 -2.534457,0.18243 -0.727123,0.0202 -1.4546,0.0209 -2.18195,0.0208 -0.61427,0.0288 -1.199809,0.004 -1.753423,-0.27868 -0.499917,-0.26334 -0.898755,-0.66039 -1.254752,-1.0921 -0.345099,-0.41815 -0.5617,-0.91918 -0.739336,-1.42649 -0.154231,-0.46083 -0.21101,-0.94222 -0.237225,-1.42483 -0.038,-0.50551 -0.02897,-0.9187 0.137652,-1.39834 0.173754,-0.39918 0.453824,-0.69736 0.778208,-0.97915 0.247444,-0.17279 0.123013,-0.0869 0.373301,-0.25764 0,0 -1.03709,0.40783 -1.03709,0.40783 v 0 c -0.249243,0.17482 -0.126677,0.0848 -0.36771,0.27011 -0.323006,0.29494 -0.599506,0.61908 -0.757161,1.03379 -0.147185,0.4707 -0.149635,0.94575 -0.118509,1.43597 0.03199,0.49139 0.09815,0.98044 0.258294,1.44866 0.183139,0.51941 0.402312,1.03336 0.757137,1.46133 0.364844,0.44149 0.769347,0.85448 1.279062,1.128 0.560276,0.31132 1.153652,0.35704 1.787681,0.32106 0.729705,-0.001 1.459547,-0.001 2.189033,-0.0215 0.846621,-0.0266 1.693764,-0.0714 2.535285,-0.17086 0.52401,-0.0634 1.057259,-0.092 1.568188,-0.23229 0.843222,-0.129 1.546741,-0.48818 2.253252,-1.00195 0.329759,-0.20276 0.6477,-0.43422 0.872689,-0.75484 0.23572,-0.33084 0.448659,-0.66943 0.507899,-1.08084 0.0173,-0.38504 -0.0439,-0.7722 -0.272888,-1.09237 -0.311621,-0.33276 -0.711161,-0.47641 -1.149541,-0.57642 -0.45294,-0.0706 -0.909579,-0.0669 -1.36103,-0.14798 -0.460531,-0.12931 -0.59554,-0.33771 -0.59813,-0.8226 0.0343,-0.39294 0.0891,-0.78808 0.40976,-1.05706 -1.856441,1.03787 0.150019,-0.10624 0.578541,-0.2007 0.87816,-0.31558 1.732629,-0.6023 2.507509,-1.1597 0.369721,-0.24156 0.660519,-0.49271 0.698741,-0.96037 0.0528,-0.53595 -0.0266,-1.06369 -0.190021,-1.57636 0,0 -0.982531,0.54112 -0.982531,0.54112 z" />
    <path
       style="fill:#07651a;stroke-width:0.264583;fill-opacity:1;opacity:1"
       id="path73"
       d="m 85.599586,109.18274 c 0.112842,0.19675 0.200372,0.40638 0.298,0.61085 0,0 0.967902,-0.54834 0.967902,-0.54834 v 0 c -0.0979,-0.20871 -0.187251,-0.42136 -0.294611,-0.62547 0,0 -0.971291,0.56296 -0.971291,0.56296 z" />
    <path
       style="fill:#07651a;stroke-width:0.264583;fill-opacity:1;opacity:1"
       id="path75"
       d="m 74.548771,117.62253 c 0.445238,-0.0247 0.880332,0.0933 1.291558,0.25417 0,0 0.928463,-0.62122 0.928463,-0.62122 v 0 c -0.412374,-0.17394 -0.862171,-0.29845 -1.312053,-0.29263 0,0 -0.907968,0.65968 -0.907968,0.65968 z" />
    <path
       style="fill:#07651a;stroke-width:0.264583;fill-opacity:1;opacity:1"
       id="path77"
       d="m 77.154705,117.47645 c 0.270169,0.1556 0.562912,0.25934 0.859068,0.35198 0,0 0.919583,-0.62772 0.919583,-0.62772 v 0 c -0.289076,-0.0843 -0.575905,-0.17857 -0.836099,-0.33411 0,0 -0.942552,0.60985 -0.942552,0.60985 z" />
    <path
       style="fill:#550000;stroke-width:0.264583;fill-opacity:1;opacity:1"
       id="path83"
       d="m 62.541632,107.12232 c 0.306903,0.62593 0.614148,1.25094 0.934355,1.87035 0.379333,0.84405 0.654179,1.73262 0.866419,2.63216 0.137845,0.65186 0.207507,1.31785 0.371189,1.96368 0.184319,0.59318 0.356468,1.18889 0.523478,1.78716 0.0886,0.24637 0.175149,0.49313 0.255619,0.74226 0,0 0.975117,-0.53636 0.975117,-0.53636 v 0 c -0.08186,-0.24674 -0.169738,-0.49114 -0.255622,-0.7365 -0.165113,-0.59743 -0.349607,-1.18789 -0.526738,-1.78169 -0.154654,-0.6468 -0.228552,-1.31093 -0.377579,-1.95958 -0.222739,-0.90615 -0.502626,-1.80125 -0.875694,-2.65753 -0.322655,-0.61811 -0.629424,-1.24302 -0.916438,-1.87859 0,0 -0.974106,0.55464 -0.974106,0.55464 z" />
    <path
       style="fill:#07651a;stroke-width:0.264583;fill-opacity:1;opacity:1"
       id="path85"
       d="m 60.812233,102.82148 c -0.344397,0.26918 -0.623213,0.50841 -0.444325,0.96497 0.236855,0.37325 0.656643,0.53484 1.061021,0.66066 0.157816,0.0612 0.801058,0.0437 0.707422,0.34285 -0.262726,0.28939 -1.488355,0.97498 -0.06324,0.11714 0,0 -0.862463,0.69125 -0.862463,0.69125 v 0 c 0.418809,-0.23413 1.607278,-0.72971 1.931988,-1.31381 -0.03357,-0.40857 -0.472665,-0.40445 -0.793372,-0.46646 -0.373181,-0.1046 -0.775684,-0.23934 -1.001334,-0.57624 -0.133903,-0.37656 0.233797,-0.63259 0.511702,-0.82444 0,0 -1.047396,0.40408 -1.047396,0.40408 z" />
    <path
       style="fill:#ffff00;stroke-width:0.264583;fill-opacity:1;opacity:1"
       id="path87"
       d="m 59.86898,109.95038 c 0.218903,0.4886 0.335447,1.01244 0.502317,1.51948 0.143706,0.45703 0.174826,0.93579 0.19566,1.41117 -0.0045,0.35296 0.105978,0.76218 -0.171183,1.03348 1.507429,-0.86543 0.864682,-0.45094 0.423741,-0.38969 -0.25671,0.0357 -0.517819,0.0382 -0.776367,0.0449 -0.536332,0.0582 -0.989182,-0.095 -1.444133,-0.36628 -0.40716,-0.21715 -0.717291,-0.51525 -0.955964,-0.9058 -0.194106,-0.44619 -0.341047,-0.9167 -0.460565,-1.38849 -0.12628,-0.58649 -0.267613,-1.17191 -0.431012,-1.74931 -0.154313,-0.54834 -0.337462,-1.08664 -0.521578,-1.62527 -0.170156,-0.59897 -0.308967,-1.2047 -0.487611,-1.80145 -0.102886,-0.31646 -0.232053,-0.62217 -0.358013,-0.92974 0,0 -0.972198,0.54426 -0.972198,0.54426 v 0 c 0.126015,0.30342 0.254161,0.60554 0.356097,0.91828 0.181155,0.59703 0.321101,1.20325 0.493017,1.80275 0.180332,0.53801 0.358333,1.07649 0.516929,1.62149 0.163907,0.57672 0.302557,1.16162 0.42721,1.74801 0.123698,0.48203 0.272253,0.96478 0.47217,1.42026 0.248261,0.40467 0.564944,0.72315 0.988949,0.94757 0.461552,0.28634 0.924864,0.48028 1.478645,0.41932 1.127821,-0.0219 1.166484,-0.005 2.282597,-0.75165 0.211339,-0.33238 0.135779,-0.72662 0.129469,-1.10315 -0.02516,-0.48474 -0.06098,-0.97271 -0.210389,-1.43795 -0.171357,-0.5062 -0.295124,-1.0269 -0.495257,-1.52331 0,0 -0.982531,0.54112 -0.982531,0.54112 z" />
    <path
       style="fill:#ffff00;stroke-width:0.264583;fill-opacity:1;opacity:1"
       id="path89"
       d="m 56.224266,112.95839 c 0.0292,0.53823 -0.01572,1.07022 -0.193104,1.58004 -0.21282,0.42472 -0.520898,0.7875 -0.867566,1.1082 -0.538038,0.35421 0.421608,-0.22614 0.617884,-0.36199 0.05584,-0.0386 -0.127251,0.0479 -0.192579,0.0664 -0.198229,0.0562 -0.401823,0.0741 -0.60601,0.0921 -0.429567,0.001 -0.873027,0.0663 -1.296734,-0.0198 -0.199403,-0.0495 -0.362209,-0.14598 -0.525925,-0.26504 0,0 -0.94279,0.59533 -0.94279,0.59533 v 0 c 0.170109,0.13502 0.336653,0.24421 0.548886,0.30427 0.423672,0.12343 0.881473,0.0349 1.318424,0.0483 0.797843,-0.0521 1.489009,-0.30003 2.110788,-0.88486 0.337883,-0.34033 0.654677,-0.70812 0.841303,-1.15584 0.161727,-0.52543 0.198742,-1.06815 0.18741,-1.6166 0,0 -0.999987,0.50952 -0.999987,0.50952 z" />
    <path
       style="fill:#07651a;stroke-width:0.264583;fill-opacity:1;opacity:1"
       id="path91"
       d="m 58.439257,108.02835 c -0.108895,0.27075 -0.203616,0.5452 -0.345345,0.80095 0,0 1.020911,-0.46053 1.020911,-0.46053 v 0 c 0.126799,-0.26675 0.228002,-0.54397 0.339727,-0.81724 0,0 -1.015293,0.47682 -1.015293,0.47682 z" />
    <path
       style="fill:#ffff00;stroke-width:0.264583;fill-opacity:1;opacity:1"
       id="path93"
       d="m 50.125824,107.66502 c 0.420018,0.31629 0.754414,0.72483 1.101291,1.11529 0.299757,0.26456 0.556537,0.57122 0.808082,0.88077 0.317024,0.37043 0.524666,0.80884 0.768533,1.22602 0.284924,0.39438 0.464463,0.84653 0.67488,1.28076 0.144788,0.32352 0.270878,0.65888 0.365035,1.00102 0.09157,0.24932 0.156298,0.50651 0.242777,0.75737 0,0 0.977728,-0.53932 0.977728,-0.53932 v 0 c -0.08396,-0.2495 -0.150863,-0.50404 -0.238347,-0.75251 -0.09769,-0.34809 -0.224224,-0.69045 -0.377169,-1.01782 -0.215215,-0.43467 -0.396611,-0.88928 -0.680805,-1.28681 -0.246584,-0.42195 -0.460605,-0.86276 -0.774816,-1.24186 -0.251373,-0.31231 -0.505952,-0.62515 -0.814033,-0.88394 -0.354722,-0.3905 -0.69074,-0.80246 -1.103437,-1.13551 0,0 -0.949719,0.59654 -0.949719,0.59654 z" />
    <path
       style="fill:#000080;stroke-width:0.264583;fill-opacity:1;opacity:1"
       id="path99"
       d="m 46.261838,105.79264 c 0.18601,0.51947 0.32045,1.05463 0.51027,1.5727 0.204973,0.50988 0.304581,1.04889 0.356518,1.59327 0.06845,0.54636 0.01955,0.87664 -0.345265,1.2968 -0.602962,0.39484 0.374682,-0.1944 0.548436,-0.31329 0.06304,-0.0431 -0.140666,0.06 -0.213159,0.0841 -0.207245,0.0688 -0.420063,0.0953 -0.635738,0.11979 -0.524047,0.0196 -0.706347,-0.1912 -0.924779,-0.63257 -0.247558,-0.58554 -0.498883,-1.16927 -0.734455,-1.76001 -0.158916,-0.56505 0.07648,-0.63859 -1.010719,0.31205 -0.04252,0.0372 0.05735,0.0974 0.08301,0.14769 0.09161,0.17955 0.104175,0.22587 0.179314,0.41724 0.173535,0.58206 0.413747,1.1416 0.604374,1.71824 0.266232,0.65083 0.513535,1.31006 0.755542,1.97065 0.26022,0.71732 0.429561,1.45726 0.523531,2.21319 0.03176,0.40754 0.104915,0.8528 -0.04635,1.24929 -0.06365,0.16684 -0.197299,0.29572 -0.311189,0.42581 -0.0652,0.071 -0.12513,0.14716 -0.195596,0.2129 -0.158089,0.14748 -0.718714,0.48085 -0.541713,0.3567 0.188783,-0.13242 0.418189,-0.20878 0.587335,-0.3655 0.103259,-0.0957 -0.254651,0.12017 -0.383574,0.1767 -0.122952,0.0539 -0.247941,0.10305 -0.371912,0.15458 -0.541155,0.22704 -1.109697,0.34683 -1.691669,0.39639 -0.671195,0.0997 -1.273336,-0.13445 -1.884286,-0.37987 -0.62947,-0.2569 -1.163201,-0.67543 -1.645303,-1.14621 -0.342345,-0.39864 -0.52351,-0.8962 -0.652624,-1.39832 -0.104021,-0.46798 -0.115615,-0.94919 -0.123899,-1.42652 -0.0049,-0.47899 -0.0024,-0.95804 -5.29e-4,-1.43705 0.01675,-0.55849 0.296201,-1.0334 0.557524,-1.50843 0.215657,-0.45032 0.530204,-0.83838 0.823328,-1.23888 0,0 -1.027232,0.4447 -1.027232,0.4447 v 0 c -0.28912,0.4035 -0.593068,0.79836 -0.809392,1.24813 -0.266393,0.48966 -0.528415,0.98707 -0.536363,1.55963 -7.94e-4,0.48004 -0.0049,0.9601 5.29e-4,1.44013 0.01188,0.48494 0.02792,0.97408 0.138356,1.4485 0.138732,0.52091 0.3307,1.03335 0.68621,1.44817 0.490691,0.48107 1.036087,0.9093 1.674358,1.17857 0.614783,0.25269 1.224751,0.51873 1.904581,0.4283 0.59186,-0.0416 1.171266,-0.14903 1.723047,-0.37693 0.997323,-0.4042 2.059074,-0.84353 2.790737,-1.65119 0.441651,-0.58275 0.392396,-1.0529 0.312211,-1.7528 -0.0995,-0.76234 -0.275331,-1.5095 -0.538826,-2.23296 -0.241388,-0.66035 -0.479965,-1.32214 -0.745165,-1.97301 -0.196636,-0.57656 -0.434938,-1.13904 -0.603372,-1.72498 -0.01998,-0.0513 -0.238821,-0.59361 -0.258889,-0.58768 -1.142696,0.33745 -1.115536,0.19789 -0.933786,0.79406 0.241668,0.59122 0.498046,1.17628 0.735586,1.769 0.232246,0.46999 0.435121,0.73543 0.99613,0.74715 0.834472,-0.0732 1.593707,-0.3899 2.221057,-0.99295 0.336117,-0.4519 0.378868,-0.82158 0.306532,-1.37385 -0.05613,-0.55241 -0.16661,-1.0982 -0.373081,-1.61587 -0.186513,-0.51889 -0.327319,-1.05233 -0.496954,-1.57669 0,0 -0.98253,0.54112 -0.98253,0.54112 z" />
    <path
       style="fill:#07651a;stroke-width:0.264583;fill-opacity:1;opacity:1"
       id="path101"
       d="m 48.046955,113.14568 c 0.343459,0.22158 0.689142,0.43579 1.025091,0.66919 0,0 0.938816,-0.5991 0.938816,-0.5991 v 0 c -0.334724,-0.22864 -0.674235,-0.44661 -1.014187,-0.66664 0,0 -0.94972,0.59655 -0.94972,0.59655 z" />
    <path
       style="fill:#07651a;stroke-width:0.264583;fill-opacity:1;opacity:1"
       id="path105"
       d="m 50.099328,113.32977 c 0.245512,0.24129 0.414523,0.54159 0.592471,0.83249 0,0 0.960239,-0.55759 0.960239,-0.55759 v 0 c -0.182033,-0.29823 -0.357484,-0.60275 -0.595212,-0.86166 0,0 -0.957498,0.58676 -0.957498,0.58676 z" />
    <path
       style="fill:#07651a;stroke-width:0.264583;fill-opacity:1;opacity:1"
       id="path107"
       d="m 41.659522,113.10183 c 0.393298,0.0975 0.781169,0.21777 1.150652,0.38395 0,0 0.925727,-0.61262 0.925727,-0.61262 v 0 c -0.370729,-0.17952 -0.764845,-0.2936 -1.157772,-0.41583 0,0 -0.918607,0.6445 -0.918607,0.6445 z" />
    <text
       style="fill:black;fill-opacity:1;line-height:1.25;stroke:none;font-family:sans-serif;font-style:normal;font-weight:normal;font-size:10.58333333px;white-space:pre;shape-inside:url(#rect1033);"
       id="text1031"
       xml:space="preserve" />
  </g>
</svg>
