<?xml version="1.0" encoding="UTF-8" standalone="no"?>
<svg
   xmlns:dc="http://purl.org/dc/elements/1.1/"
   xmlns:cc="http://creativecommons.org/ns#"
   xmlns:rdf="http://www.w3.org/1999/02/22-rdf-syntax-ns#"
   xmlns:svg="http://www.w3.org/2000/svg"
   xmlns="http://www.w3.org/2000/svg"
   xmlns:sodipodi="http://sodipodi.sourceforge.net/DTD/sodipodi-0.dtd"
   xmlns:inkscape="http://www.inkscape.org/namespaces/inkscape"
   sodipodi:docname="logo-arabionline_ar.svg"
   inkscape:version="1.0 (4035a4fb49, 2020-05-01)"
   id="svg860"
   version="1.1"
   viewBox="0 0 58.651295 9.6007204"
   height="9.6007204mm"
   width="58.651295mm">
  <defs
     id="defs854" />
  <sodipodi:namedview
     inkscape:window-maximized="0"
     inkscape:window-y="14"
     inkscape:window-x="278"
     inkscape:window-height="861"
     inkscape:window-width="1256"
     fit-margin-bottom="0"
     fit-margin-right="0"
     fit-margin-left="0"
     fit-margin-top="0"
     showgrid="false"
     inkscape:document-rotation="0"
     inkscape:current-layer="layer1"
     inkscape:document-units="mm"
     inkscape:cy="174.44971"
     inkscape:cx="-161.41238"
     inkscape:zoom="0.19792619"
     inkscape:pageshadow="2"
     inkscape:pageopacity="0.0"
     borderopacity="1.0"
     bordercolor="#666666"
     pagecolor="#ffffff"
     id="base" />
  <metadata
     id="metadata857">
    <rdf:RDF>
      <cc:Work
         rdf:about="">
        <dc:format>image/svg+xml</dc:format>
        <dc:type
           rdf:resource="http://purl.org/dc/dcmitype/StillImage" />
        <dc:title></dc:title>
      </cc:Work>
    </rdf:RDF>
  </metadata>
  <g
     transform="translate(-103.72201,-151.68178)"
     id="layer1"
     inkscape:groupmode="layer"
     inkscape:label="Ebene 1">
    <path
       style="opacity:1;fill:#008000;fill-opacity:1;stroke-width:0.197658"
       id="path69"
       d="m 161.18238,152.61665 c -0.45631,0.006 -0.91272,-0.007 -1.36821,0.0142 -0.24924,0.0267 -0.47942,0.0961 -0.69517,0.18439 -0.62051,0.25389 -0.93708,0.28468 -1.24106,0.62721 -0.14503,0.21524 -0.14962,0.45402 -0.15562,0.68681 0.008,0.2647 -0.0165,0.53097 0.0298,0.7941 0.11127,0.32007 0.36583,0.42159 0.80064,0.5049 0.38561,0.087 0.78489,0.13272 1.18744,0.15991 0.3536,0.0152 0.70963,0.0313 1.06315,0.0102 0.52837,-0.0474 0.87889,-0.27177 1.35953,-0.47211 0.083,-0.0346 0.17474,-0.0769 0.21043,-0.14163 -0.0321,-0.0224 -0.0536,-0.056 -0.0963,-0.0672 -0.0332,-0.009 -0.28529,0.0811 -0.30825,0.09 -0.96746,0.37678 -0.70721,0.23322 -1.11435,0.4714 -0.30786,0.17499 -0.64209,0.32351 -0.96391,0.48482 -0.16731,0.0871 -0.32899,0.18287 -0.50243,0.26422 -0.0675,0.0317 -0.27896,0.11687 -0.2097,0.0871 0.66419,-0.28538 0.84635,-0.33333 0.37065,-0.18539 -0.56094,0.15003 -1.06277,0.39202 -1.56612,0.61376 -0.0726,0.032 -0.13413,0.0749 -0.20518,0.10856 -0.0687,0.0325 -0.28477,0.11904 -0.21323,0.0897 0.21547,-0.0884 0.43003,-0.17793 0.64504,-0.26691 -0.44883,0.13064 -0.92378,0.2059 -1.40465,0.25136 -0.44241,0.0342 -0.88809,0.0356 -1.33269,0.0368 -0.41771,0.0163 -0.82476,-0.0241 -1.22704,-0.0982 -0.37008,-0.0803 -0.75185,-0.11295 -1.13734,-0.12788 -0.42344,-0.008 -0.84819,-0.0351 -1.26458,0.028 -0.57861,0.17866 -1.27861,0.39998 -1.57584,0.81571 -0.17461,0.29081 -0.32412,0.5904 -0.47527,0.88851 -0.15841,0.28968 -0.3394,0.57404 -0.57283,0.83851 -0.23383,0.30014 -0.49295,0.58254 -0.83084,0.83132 -0.3148,0.19448 -0.66501,0.35607 -1.02315,0.5092 0.21908,-0.089 0.43971,-0.17627 0.65722,-0.26713 0.0648,-0.0271 -0.13149,0.0519 -0.19892,0.0757 -0.32531,0.11464 -0.67117,0.16263 -1.02435,0.21859 -0.54052,0.0924 -1.09511,0.1271 -1.6495,0.14799 -0.44719,0.013 -0.8949,0.0127 -1.3424,0.0126 0,0 -0.80955,0.4064 -0.80955,0.4064 v 0 c 0.44961,3.2e-4 0.89937,0.001 1.34875,-0.0114 0.55788,-0.018 1.11718,-0.0495 1.66187,-0.13942 0.27154,-0.0428 0.55551,-0.0723 0.81909,-0.13603 0.52938,-0.1279 0.93304,-0.44907 1.46989,-0.5572 0.35709,-0.15656 0.70997,-0.32046 1.01251,-0.52641 0.32925,-0.25578 0.58148,-0.54574 0.82194,-0.84428 0.22413,-0.27175 0.41383,-0.55533 0.56458,-0.85054 0.15251,-0.29556 0.29327,-0.59657 0.48735,-0.87972 0.0919,-0.10241 0.18536,-0.17721 0.31629,-0.25702 0.039,-0.0238 0.1657,-0.0853 0.11895,-0.0696 -0.19522,0.0655 -1.09842,0.41453 -0.57163,0.21531 0.40726,-0.0831 0.8279,-0.0517 1.24808,-0.0457 0.38008,0.013 0.75861,0.0384 1.1243,0.11633 0.40703,0.0772 0.81794,0.13272 1.24279,0.11326 0.44744,-0.001 0.89585,-0.001 1.34167,-0.031 0.48748,-0.039 0.96423,-0.11568 1.42571,-0.23251 0.3548,-0.1381 0.71195,-0.27336 1.06443,-0.41428 0.14616,-0.0584 0.56944,-0.24726 0.41393,-0.2018 -0.2176,0.0636 -0.41457,0.1569 -0.62588,0.22995 -0.0842,0.0291 0.15961,-0.0696 0.24435,-0.0981 0.0778,-0.0261 0.16116,-0.0433 0.24174,-0.0649 0.73297,-0.22361 1.43036,-0.49926 2.05302,-0.84744 0.32796,-0.15774 0.65341,-0.31661 0.96562,-0.48932 0.34066,-0.17554 0.26591,-0.131 -0.60747,0.21939 -0.0947,0.0379 0.62774,-0.16189 0.26389,-0.17215 -0.0704,0.0384 -0.29436,0.14062 -0.21474,0.11207 0.24035,-0.0862 0.47448,-0.18041 0.71171,-0.27061 -0.0542,0.018 -0.10551,0.0411 -0.16271,0.054 -0.0544,0.0122 -0.11263,0.0139 -0.16894,0.0208 -0.34763,0.0359 -0.70218,0.01 -1.05217,0.002 -0.39963,-0.0227 -0.79797,-0.0615 -1.17978,-0.14985 -0.37398,-0.0615 -0.65707,-0.14959 -0.73669,-0.43415 -0.0391,-0.26102 -0.0182,-0.52433 -0.0218,-0.78644 0.009,-0.22265 0.016,-0.45218 0.17993,-0.65095 0.25111,-0.23396 0.68541,-0.34427 -0.45739,0.084 -0.0677,0.0253 0.13329,-0.0533 0.20112,-0.0784 0.26493,-0.0981 0.17575,-0.0683 0.47026,-0.12996 0.45012,-0.0281 0.9025,-0.0126 1.35412,-0.0138 0,0 0.81594,-0.40968 0.81594,-0.40968 z" />
    <path
       style="opacity:1;fill:#ff0000;fill-opacity:1;stroke-width:0.197658"
       id="path71"
       d="m 145.55001,152.72165 c 0.15354,0.30704 0.22471,0.62724 0.15644,0.94945 -0.0463,0.27658 -0.34297,0.40761 -0.66297,0.53981 1.62124,-0.56618 -0.19801,-0.0357 -0.53695,0.0475 -0.80324,0.18931 -1.51203,0.50237 -2.23776,0.80015 -0.26363,0.1975 -0.30799,0.45696 -0.33085,0.71364 0.0157,0.325 0.16483,0.48439 0.60556,0.59068 0.40451,0.0669 0.82165,0.0596 1.23164,0.10099 0.37196,0.0535 0.72652,0.12822 0.99528,0.3203 0.18594,0.18342 0.23468,0.40933 0.20459,0.6282 -0.0708,0.24454 -0.26921,0.44003 -0.47968,0.63584 -0.20892,0.18988 -0.50209,0.32599 -0.7996,0.44251 -0.53274,0.2202 0.3493,-0.13181 0.51618,-0.20647 0.0596,-0.0266 -0.12907,0.0412 -0.19549,0.0586 -0.1978,0.0517 -0.40108,0.0795 -0.60836,0.105 -0.46326,0.0827 -0.94037,0.10942 -1.41353,0.15008 -0.75532,0.0689 -1.51678,0.095 -2.27759,0.1133 -0.65343,0.0125 -1.30718,0.013 -1.96082,0.0129 -0.55201,0.0179 -1.07821,0.002 -1.57572,-0.17306 -0.44925,-0.16355 -0.80766,-0.41013 -1.12758,-0.67823 -0.31012,-0.25968 -0.50477,-0.57084 -0.66441,-0.88589 -0.1386,-0.28619 -0.18962,-0.58515 -0.21318,-0.88486 -0.0341,-0.31394 -0.026,-0.57054 0.1237,-0.86841 0.15615,-0.2479 0.40783,-0.43308 0.69934,-0.60808 0.22237,-0.10731 0.11055,-0.054 0.33547,-0.16 0,0 -0.93199,0.25327 -0.93199,0.25327 v 0 c -0.22398,0.10857 -0.11383,0.0527 -0.33044,0.16775 -0.29027,0.18316 -0.53874,0.38446 -0.68042,0.64201 -0.13227,0.29232 -0.13447,0.58734 -0.1065,0.89178 0.0288,0.30517 0.0882,0.60888 0.23212,0.89966 0.16457,0.32257 0.36153,0.64174 0.6804,0.90753 0.32786,0.27417 0.69137,0.53065 1.14943,0.70052 0.50349,0.19334 1.03673,0.22173 1.6065,0.19938 0.65575,-6e-4 1.31163,-6e-4 1.96718,-0.0134 0.76082,-0.0165 1.52211,-0.0443 2.27834,-0.10611 0.4709,-0.0394 0.95011,-0.0571 1.40926,-0.14426 0.75776,-0.0801 1.38998,-0.30317 2.02489,-0.62224 0.29633,-0.12592 0.58205,-0.26966 0.78424,-0.46877 0.21183,-0.20546 0.40319,-0.41574 0.45642,-0.67124 0.0156,-0.23912 -0.0395,-0.47955 -0.24523,-0.67839 -0.28003,-0.20665 -0.63909,-0.29586 -1.03304,-0.35797 -0.40703,-0.0438 -0.81739,-0.0415 -1.22309,-0.0919 -0.41385,-0.0803 -0.53518,-0.20973 -0.53751,-0.51086 0.0308,-0.24403 0.0801,-0.48942 0.36823,-0.65646 -1.66829,0.64454 0.13482,-0.066 0.51991,-0.12465 0.78916,-0.19598 1.55703,-0.37404 2.25338,-0.7202 0.33225,-0.15002 0.59358,-0.30599 0.62792,-0.59642 0.0474,-0.33284 -0.0239,-0.66058 -0.17076,-0.97896 0,0 -0.88295,0.33605 -0.88295,0.33605 z" />
    <path
       style="opacity:1;fill:#07651a;fill-opacity:1;stroke-width:0.197658"
       id="path73"
       d="m 146.76421,155.8833 c 0.10141,0.12219 0.18007,0.25237 0.2678,0.37936 0,0 0.86981,-0.34054 0.86981,-0.34054 v 0 c -0.088,-0.12961 -0.16828,-0.26168 -0.26475,-0.38843 0,0 -0.87286,0.34961 -0.87286,0.34961 z" />
    <path
       style="opacity:1;fill:#07651a;fill-opacity:1;stroke-width:0.197658"
       id="path75"
       d="m 136.83337,161.12465 c 0.40012,-0.0153 0.79112,0.0579 1.16067,0.15785 0,0 0.83436,-0.3858 0.83436,-0.3858 v 0 c -0.37058,-0.10802 -0.77479,-0.18534 -1.17908,-0.18173 0,0 -0.81595,0.40968 -0.81595,0.40968 z" />
    <path
       style="opacity:1;fill:#07651a;fill-opacity:1;stroke-width:0.197658"
       id="path77"
       d="m 139.1752,161.03393 c 0.24279,0.0966 0.50587,0.16106 0.772,0.21859 0,0 0.82639,-0.38983 0.82639,-0.38983 v 0 c -0.25978,-0.0523 -0.51754,-0.1109 -0.75136,-0.20749 0,0 -0.84703,0.37873 -0.84703,0.37873 z" />
    <path
       style="opacity:1;fill:#550000;fill-opacity:1;stroke-width:0.197658"
       id="path83"
       d="m 126.04314,154.60372 c 0.27579,0.38872 0.5519,0.77687 0.83966,1.16154 0.34088,0.52418 0.58787,1.07601 0.7786,1.63465 0.12388,0.40482 0.18648,0.81842 0.33357,1.2195 0.16564,0.36838 0.32035,0.73833 0.47043,1.10988 0.0796,0.153 0.1574,0.30625 0.22971,0.46096 0,0 0.87629,-0.33309 0.87629,-0.33309 v 0 c -0.0736,-0.15324 -0.15253,-0.30501 -0.22971,-0.45739 -0.14838,-0.37102 -0.31418,-0.73771 -0.47336,-1.10648 -0.13898,-0.40168 -0.20539,-0.81413 -0.33931,-1.21696 -0.20016,-0.56274 -0.45169,-1.11862 -0.78694,-1.6504 -0.28996,-0.38386 -0.56564,-0.77195 -0.82356,-1.16666 0,0 -0.87538,0.34445 -0.87538,0.34445 z" />
    <path
       style="opacity:1;fill:#07651a;fill-opacity:1;stroke-width:0.197658"
       id="path85"
       d="m 124.48901,151.93278 c -0.3095,0.16716 -0.56005,0.31573 -0.3993,0.59927 0.21285,0.2318 0.5901,0.33215 0.95349,0.41029 0.14182,0.038 0.71988,0.0271 0.63573,0.21292 -0.2361,0.17972 -1.33751,0.60549 -0.0568,0.0727 0,0 -0.77506,0.42928 -0.77506,0.42928 v 0 c 0.37637,-0.1454 1.44439,-0.45317 1.73619,-0.81591 -0.0302,-0.25374 -0.42476,-0.25118 -0.71297,-0.28969 -0.33536,-0.065 -0.69707,-0.14863 -0.89985,-0.35786 -0.12033,-0.23385 0.21011,-0.39286 0.45984,-0.512 0,0 -0.94124,0.25095 -0.94124,0.25095 z" />
    <path
       style="opacity:1;fill:#ffff00;fill-opacity:1;stroke-width:0.197658"
       id="path87"
       d="m 123.64135,156.36003 c 0.19672,0.30343 0.30145,0.62875 0.45141,0.94364 0.12914,0.28383 0.15711,0.58115 0.17583,0.87637 -0.004,0.2192 0.0952,0.47334 -0.15383,0.64183 1.35465,-0.53746 0.77704,-0.28005 0.38079,-0.24201 -0.23069,0.0222 -0.46534,0.0237 -0.69768,0.0279 -0.48198,0.0361 -0.88893,-0.059 -1.29778,-0.22747 -0.36589,-0.13486 -0.64459,-0.31998 -0.85907,-0.56253 -0.17444,-0.27709 -0.30649,-0.56929 -0.41389,-0.86229 -0.11348,-0.36423 -0.24049,-0.72779 -0.38733,-1.08637 -0.13868,-0.34054 -0.30326,-0.67484 -0.46872,-1.00934 -0.15291,-0.37198 -0.27765,-0.74815 -0.43819,-1.11875 -0.0925,-0.19653 -0.20854,-0.38639 -0.32173,-0.5774 0,0 -0.87367,0.338 -0.87367,0.338 v 0 c 0.11325,0.18844 0.2284,0.37606 0.32001,0.57028 0.16279,0.37077 0.28856,0.74725 0.44305,1.11956 0.16206,0.33412 0.32202,0.66853 0.46454,1.00699 0.14729,0.35816 0.27189,0.7214 0.38391,1.08557 0.11116,0.29935 0.24466,0.59915 0.42432,0.88202 0.2231,0.25131 0.50769,0.4491 0.88872,0.58847 0.41477,0.17782 0.83113,0.29827 1.32879,0.26041 1.01352,-0.0136 1.04826,-0.003 2.05126,-0.4668 0.18992,-0.20642 0.12202,-0.45125 0.11635,-0.68509 -0.0226,-0.30103 -0.0548,-0.60408 -0.18907,-0.89301 -0.15399,-0.31436 -0.26522,-0.63773 -0.44507,-0.94601 0,0 -0.88295,0.33605 -0.88295,0.33605 z" />
    <path
       style="opacity:1;fill:#ffff00;fill-opacity:1;stroke-width:0.197658"
       id="path89"
       d="m 120.36602,158.22809 c 0.0262,0.33425 -0.0141,0.66463 -0.17353,0.98125 -0.19125,0.26376 -0.46811,0.48906 -0.77964,0.68822 -0.48351,0.21998 0.37888,-0.14044 0.55526,-0.2248 0.0502,-0.024 -0.11435,0.0297 -0.17306,0.0412 -0.17814,0.0349 -0.3611,0.046 -0.54459,0.0572 -0.38603,6.1e-4 -0.78455,0.0412 -1.16531,-0.0123 -0.1792,-0.0307 -0.3255,-0.0907 -0.47263,-0.1646 0,0 -0.84724,0.36972 -0.84724,0.36972 v 0 c 0.15287,0.0838 0.30254,0.15166 0.49326,0.18896 0.38073,0.0767 0.79214,0.0217 1.1848,0.03 0.71699,-0.0324 1.3381,-0.18633 1.89687,-0.54953 0.30364,-0.21135 0.58832,-0.43976 0.75604,-0.71781 0.14533,-0.3263 0.1786,-0.66335 0.16841,-1.00395 0,0 -0.89864,0.31643 -0.89864,0.31643 z" />
    <path
       style="opacity:1;fill:#07651a;fill-opacity:1;stroke-width:0.197658"
       id="path91"
       d="m 122.35653,155.16639 c -0.0979,0.16814 -0.18298,0.33859 -0.31035,0.49741 0,0 0.91745,-0.286 0.91745,-0.286 v 0 c 0.11395,-0.16566 0.20489,-0.33782 0.30529,-0.50753 0,0 -0.91239,0.29612 -0.91239,0.29612 z" />
    <path
       style="opacity:1;fill:#ffff00;fill-opacity:1;stroke-width:0.197658"
       id="path93"
       d="m 114.88564,154.94075 c 0.37746,0.19643 0.67796,0.45014 0.98968,0.69263 0.26938,0.1643 0.50014,0.35474 0.72619,0.54698 0.28489,0.23005 0.47149,0.50232 0.69064,0.7614 0.25605,0.24492 0.41739,0.52572 0.60648,0.79539 0.13012,0.20091 0.24343,0.40918 0.32804,0.62166 0.0823,0.15483 0.14046,0.31455 0.21817,0.47035 0,0 0.87864,-0.33494 0.87864,-0.33494 v 0 c -0.0755,-0.15494 -0.13557,-0.31302 -0.21419,-0.46733 -0.0878,-0.21617 -0.2015,-0.42879 -0.33894,-0.63209 -0.19341,-0.26995 -0.35642,-0.55227 -0.61181,-0.79915 -0.22159,-0.26204 -0.41392,-0.5358 -0.69629,-0.77123 -0.2259,-0.19395 -0.45467,-0.38824 -0.73153,-0.54895 -0.31877,-0.24251 -0.62074,-0.49835 -0.99161,-0.70519 0,0 -0.85347,0.37047 -0.85347,0.37047 z" />
    <path
       style="opacity:1;fill:#000080;fill-opacity:1;stroke-width:0.197658"
       id="path99"
       d="m 111.41327,153.77795 c 0.16715,0.32261 0.28797,0.65496 0.45855,0.97669 0.1842,0.31665 0.27371,0.65139 0.32039,0.98947 0.0615,0.3393 0.0176,0.54442 -0.31028,0.80535 -0.54185,0.24521 0.33671,-0.12073 0.49286,-0.19456 0.0566,-0.0268 -0.12641,0.0373 -0.19156,0.0522 -0.18624,0.0427 -0.37749,0.0592 -0.57131,0.0744 -0.47093,0.0122 -0.63476,-0.11874 -0.83105,-0.39285 -0.22247,-0.36363 -0.44832,-0.72615 -0.66002,-1.09301 -0.14281,-0.35091 0.0687,-0.39658 -0.90828,0.19379 -0.0382,0.0231 0.0515,0.0605 0.0746,0.0917 0.0823,0.11151 0.0936,0.14027 0.16114,0.25912 0.15594,0.36147 0.37181,0.70896 0.54312,1.06707 0.23925,0.40419 0.46149,0.81359 0.67897,1.22383 0.23384,0.44548 0.38602,0.905 0.47047,1.37446 0.0285,0.25309 0.0943,0.52961 -0.0417,0.77584 -0.0572,0.10362 -0.1773,0.18365 -0.27965,0.26444 -0.0586,0.0441 -0.11245,0.0914 -0.17577,0.13222 -0.14207,0.0916 -0.64588,0.29862 -0.48682,0.22152 0.16965,-0.0822 0.37581,-0.12966 0.52781,-0.22698 0.0928,-0.0594 -0.22884,0.0746 -0.3447,0.10973 -0.11049,0.0335 -0.22281,0.064 -0.33421,0.096 -0.48631,0.141 -0.99724,0.21539 -1.52023,0.24617 -0.60317,0.0619 -1.14428,-0.0835 -1.69331,-0.23591 -0.56568,-0.15954 -1.04532,-0.41946 -1.47856,-0.71183 -0.30765,-0.24757 -0.47045,-0.55657 -0.58648,-0.8684 -0.0935,-0.29063 -0.1039,-0.58947 -0.11134,-0.88591 -0.004,-0.29746 -0.002,-0.59497 -4.8e-4,-0.89245 0.015,-0.34683 0.26618,-0.64177 0.50102,-0.93677 0.1938,-0.27967 0.47647,-0.52066 0.73989,-0.76938 0,0 -0.92313,0.27617 -0.92313,0.27617 v 0 c -0.25982,0.25058 -0.53296,0.4958 -0.72736,0.77512 -0.23939,0.30409 -0.47486,0.613 -0.482,0.96858 -7.2e-4,0.29812 -0.004,0.59625 4.7e-4,0.89436 0.0107,0.30116 0.0251,0.60493 0.12434,0.89956 0.12467,0.3235 0.29718,0.64174 0.61666,0.89935 0.44096,0.29876 0.93108,0.56471 1.50466,0.73193 0.55248,0.15693 1.10063,0.32215 1.71156,0.26599 0.53188,-0.0258 1.05256,-0.0926 1.54842,-0.23409 0.89625,-0.25102 1.85039,-0.52385 2.5079,-1.02543 0.39689,-0.36191 0.35263,-0.65389 0.28057,-1.08854 -0.0894,-0.47344 -0.24743,-0.93745 -0.48422,-1.38674 -0.21692,-0.41009 -0.43132,-0.82108 -0.66964,-1.22529 -0.17671,-0.35806 -0.39086,-0.70738 -0.54222,-1.07126 -0.0179,-0.0319 -0.21462,-0.36865 -0.23265,-0.36497 -1.02689,0.20957 -1.00248,0.1229 -0.83915,0.49313 0.21717,0.36717 0.44757,0.73051 0.66103,1.0986 0.20871,0.29188 0.39103,0.45673 0.89518,0.46401 0.7499,-0.0455 1.43219,-0.24214 1.99595,-0.61665 0.30206,-0.28065 0.34048,-0.51023 0.27547,-0.8532 -0.0504,-0.34307 -0.14972,-0.68202 -0.33527,-1.00351 -0.16761,-0.32224 -0.29414,-0.65352 -0.44659,-0.97917 0,0 -0.88295,0.33605 -0.88295,0.33605 z" />
    <path
       style="opacity:1;fill:#07651a;fill-opacity:1;stroke-width:0.197658"
       id="path101"
       d="m 113.01747,158.3444 c 0.30865,0.13761 0.61929,0.27064 0.9212,0.41559 0,0 0.84366,-0.37206 0.84366,-0.37206 v 0 c -0.3008,-0.14199 -0.6059,-0.27736 -0.9114,-0.414 0,0 -0.85346,0.37047 -0.85346,0.37047 z" />
    <path
       style="opacity:1;fill:#07651a;fill-opacity:1;stroke-width:0.197658"
       id="path105"
       d="m 114.86183,158.45873 c 0.22063,0.14984 0.37252,0.33634 0.53243,0.517 0,0 0.86292,-0.34628 0.86292,-0.34628 v 0 c -0.16358,-0.18521 -0.32125,-0.37433 -0.53489,-0.53512 0,0 -0.86046,0.3644 -0.86046,0.3644 z" />
    <path
       style="opacity:1;fill:#07651a;fill-opacity:1;stroke-width:0.197658"
       id="path107"
       d="m 107.27739,158.31717 c 0.35343,0.0606 0.70199,0.13524 1.03403,0.23844 0,0 0.83191,-0.38045 0.83191,-0.38045 v 0 c -0.33316,-0.11149 -0.68733,-0.18234 -1.04044,-0.25825 0,0 -0.8255,0.40026 -0.8255,0.40026 z" />
  </g>
</svg>
